<?xml version="1.0" encoding="utf-8"?>
<svg xmlns="http://www.w3.org/2000/svg" xmlns:xlink="http://www.w3.org/1999/xlink" width="600" height="400" viewBox="0 0 2400 1600">
<defs>
  <clipPath id="clip360">
    <rect x="0" y="0" width="2400" height="1600"/>
  </clipPath>
</defs>
<path clip-path="url(#clip360)" d="M0 1600 L2400 1600 L2400 8.88178e-14 L0 8.88178e-14  Z" fill="#ffffff" fill-rule="evenodd" fill-opacity="1"/>
<defs>
  <clipPath id="clip361">
    <rect x="480" y="0" width="1681" height="1600"/>
  </clipPath>
</defs>
<path clip-path="url(#clip360)" d="M184.191 1486.45 L2352.76 1486.45 L2352.76 47.2441 L184.191 47.2441  Z" fill="#ffffff" fill-rule="evenodd" fill-opacity="1"/>
<defs>
  <clipPath id="clip362">
    <rect x="184" y="47" width="2170" height="1440"/>
  </clipPath>
</defs>
<polyline clip-path="url(#clip362)" style="stroke:#000000; stroke-linecap:round; stroke-linejoin:round; stroke-width:2; stroke-opacity:0.1; fill:none" points="245.565,1486.45 245.565,47.2441 "/>
<polyline clip-path="url(#clip362)" style="stroke:#000000; stroke-linecap:round; stroke-linejoin:round; stroke-width:2; stroke-opacity:0.1; fill:none" points="757.019,1486.45 757.019,47.2441 "/>
<polyline clip-path="url(#clip362)" style="stroke:#000000; stroke-linecap:round; stroke-linejoin:round; stroke-width:2; stroke-opacity:0.1; fill:none" points="1268.47,1486.45 1268.47,47.2441 "/>
<polyline clip-path="url(#clip362)" style="stroke:#000000; stroke-linecap:round; stroke-linejoin:round; stroke-width:2; stroke-opacity:0.1; fill:none" points="1779.93,1486.45 1779.93,47.2441 "/>
<polyline clip-path="url(#clip362)" style="stroke:#000000; stroke-linecap:round; stroke-linejoin:round; stroke-width:2; stroke-opacity:0.1; fill:none" points="2291.38,1486.45 2291.38,47.2441 "/>
<polyline clip-path="url(#clip362)" style="stroke:#000000; stroke-linecap:round; stroke-linejoin:round; stroke-width:2; stroke-opacity:0.1; fill:none" points="184.191,1282.9 2352.76,1282.9 "/>
<polyline clip-path="url(#clip362)" style="stroke:#000000; stroke-linecap:round; stroke-linejoin:round; stroke-width:2; stroke-opacity:0.1; fill:none" points="184.191,956.54 2352.76,956.54 "/>
<polyline clip-path="url(#clip362)" style="stroke:#000000; stroke-linecap:round; stroke-linejoin:round; stroke-width:2; stroke-opacity:0.1; fill:none" points="184.191,630.178 2352.76,630.178 "/>
<polyline clip-path="url(#clip362)" style="stroke:#000000; stroke-linecap:round; stroke-linejoin:round; stroke-width:2; stroke-opacity:0.1; fill:none" points="184.191,303.816 2352.76,303.816 "/>
<polyline clip-path="url(#clip360)" style="stroke:#000000; stroke-linecap:round; stroke-linejoin:round; stroke-width:4; stroke-opacity:1; fill:none" points="184.191,1486.45 2352.76,1486.45 "/>
<polyline clip-path="url(#clip360)" style="stroke:#000000; stroke-linecap:round; stroke-linejoin:round; stroke-width:4; stroke-opacity:1; fill:none" points="245.565,1486.45 245.565,1467.55 "/>
<polyline clip-path="url(#clip360)" style="stroke:#000000; stroke-linecap:round; stroke-linejoin:round; stroke-width:4; stroke-opacity:1; fill:none" points="757.019,1486.45 757.019,1467.55 "/>
<polyline clip-path="url(#clip360)" style="stroke:#000000; stroke-linecap:round; stroke-linejoin:round; stroke-width:4; stroke-opacity:1; fill:none" points="1268.47,1486.45 1268.47,1467.55 "/>
<polyline clip-path="url(#clip360)" style="stroke:#000000; stroke-linecap:round; stroke-linejoin:round; stroke-width:4; stroke-opacity:1; fill:none" points="1779.93,1486.45 1779.93,1467.55 "/>
<polyline clip-path="url(#clip360)" style="stroke:#000000; stroke-linecap:round; stroke-linejoin:round; stroke-width:4; stroke-opacity:1; fill:none" points="2291.38,1486.45 2291.38,1467.55 "/>
<path clip-path="url(#clip360)" d="M245.565 1517.37 Q241.954 1517.37 240.125 1520.93 Q238.32 1524.47 238.32 1531.6 Q238.32 1538.71 240.125 1542.27 Q241.954 1545.82 245.565 1545.82 Q249.199 1545.82 251.005 1542.27 Q252.834 1538.71 252.834 1531.6 Q252.834 1524.47 251.005 1520.93 Q249.199 1517.37 245.565 1517.37 M245.565 1513.66 Q251.375 1513.66 254.431 1518.27 Q257.51 1522.85 257.51 1531.6 Q257.51 1540.33 254.431 1544.94 Q251.375 1549.52 245.565 1549.52 Q239.755 1549.52 236.676 1544.94 Q233.621 1540.33 233.621 1531.6 Q233.621 1522.85 236.676 1518.27 Q239.755 1513.66 245.565 1513.66 Z" fill="#000000" fill-rule="nonzero" fill-opacity="1" /><path clip-path="url(#clip360)" d="M736.29 1544.91 L752.61 1544.91 L752.61 1548.85 L730.665 1548.85 L730.665 1544.91 Q733.327 1542.16 737.911 1537.53 Q742.517 1532.88 743.698 1531.53 Q745.943 1529.01 746.823 1527.27 Q747.725 1525.51 747.725 1523.82 Q747.725 1521.07 745.781 1519.33 Q743.86 1517.6 740.758 1517.6 Q738.559 1517.6 736.105 1518.36 Q733.674 1519.13 730.897 1520.68 L730.897 1515.95 Q733.721 1514.82 736.174 1514.24 Q738.628 1513.66 740.665 1513.66 Q746.035 1513.66 749.23 1516.35 Q752.424 1519.03 752.424 1523.52 Q752.424 1525.65 751.614 1527.57 Q750.827 1529.47 748.721 1532.07 Q748.142 1532.74 745.04 1535.95 Q741.938 1539.15 736.29 1544.91 Z" fill="#000000" fill-rule="nonzero" fill-opacity="1" /><path clip-path="url(#clip360)" d="M762.471 1514.29 L780.827 1514.29 L780.827 1518.22 L766.753 1518.22 L766.753 1526.7 Q767.771 1526.35 768.79 1526.19 Q769.809 1526 770.827 1526 Q776.614 1526 779.994 1529.17 Q783.373 1532.34 783.373 1537.76 Q783.373 1543.34 779.901 1546.44 Q776.429 1549.52 770.109 1549.52 Q767.934 1549.52 765.665 1549.15 Q763.42 1548.78 761.012 1548.04 L761.012 1543.34 Q763.096 1544.47 765.318 1545.03 Q767.54 1545.58 770.017 1545.58 Q774.021 1545.58 776.359 1543.48 Q778.697 1541.37 778.697 1537.76 Q778.697 1534.15 776.359 1532.04 Q774.021 1529.94 770.017 1529.94 Q768.142 1529.94 766.267 1530.35 Q764.415 1530.77 762.471 1531.65 L762.471 1514.29 Z" fill="#000000" fill-rule="nonzero" fill-opacity="1" /><path clip-path="url(#clip360)" d="M1243.17 1514.29 L1261.53 1514.29 L1261.53 1518.22 L1247.45 1518.22 L1247.45 1526.7 Q1248.47 1526.35 1249.49 1526.19 Q1250.51 1526 1251.53 1526 Q1257.32 1526 1260.7 1529.17 Q1264.08 1532.34 1264.08 1537.76 Q1264.08 1543.34 1260.6 1546.44 Q1257.13 1549.52 1250.81 1549.52 Q1248.64 1549.52 1246.37 1549.15 Q1244.12 1548.78 1241.71 1548.04 L1241.71 1543.34 Q1243.8 1544.47 1246.02 1545.03 Q1248.24 1545.58 1250.72 1545.58 Q1254.72 1545.58 1257.06 1543.48 Q1259.4 1541.37 1259.4 1537.76 Q1259.4 1534.15 1257.06 1532.04 Q1254.72 1529.94 1250.72 1529.94 Q1248.84 1529.94 1246.97 1530.35 Q1245.12 1530.77 1243.17 1531.65 L1243.17 1514.29 Z" fill="#000000" fill-rule="nonzero" fill-opacity="1" /><path clip-path="url(#clip360)" d="M1283.29 1517.37 Q1279.68 1517.37 1277.85 1520.93 Q1276.04 1524.47 1276.04 1531.6 Q1276.04 1538.71 1277.85 1542.27 Q1279.68 1545.82 1283.29 1545.82 Q1286.92 1545.82 1288.73 1542.27 Q1290.56 1538.71 1290.56 1531.6 Q1290.56 1524.47 1288.73 1520.93 Q1286.92 1517.37 1283.29 1517.37 M1283.29 1513.66 Q1289.1 1513.66 1292.15 1518.27 Q1295.23 1522.85 1295.23 1531.6 Q1295.23 1540.33 1292.15 1544.94 Q1289.1 1549.52 1283.29 1549.52 Q1277.48 1549.52 1274.4 1544.94 Q1271.34 1540.33 1271.34 1531.6 Q1271.34 1522.85 1274.4 1518.27 Q1277.48 1513.66 1283.29 1513.66 Z" fill="#000000" fill-rule="nonzero" fill-opacity="1" /><path clip-path="url(#clip360)" d="M1753.78 1514.29 L1776 1514.29 L1776 1516.28 L1763.46 1548.85 L1758.57 1548.85 L1770.38 1518.22 L1753.78 1518.22 L1753.78 1514.29 Z" fill="#000000" fill-rule="nonzero" fill-opacity="1" /><path clip-path="url(#clip360)" d="M1785.17 1514.29 L1803.53 1514.29 L1803.53 1518.22 L1789.45 1518.22 L1789.45 1526.7 Q1790.47 1526.35 1791.49 1526.19 Q1792.51 1526 1793.53 1526 Q1799.31 1526 1802.69 1529.17 Q1806.07 1532.34 1806.07 1537.76 Q1806.07 1543.34 1802.6 1546.44 Q1799.13 1549.52 1792.81 1549.52 Q1790.63 1549.52 1788.36 1549.15 Q1786.12 1548.78 1783.71 1548.04 L1783.71 1543.34 Q1785.8 1544.47 1788.02 1545.03 Q1790.24 1545.58 1792.72 1545.58 Q1796.72 1545.58 1799.06 1543.48 Q1801.4 1541.37 1801.4 1537.76 Q1801.4 1534.15 1799.06 1532.04 Q1796.72 1529.94 1792.72 1529.94 Q1790.84 1529.94 1788.97 1530.35 Q1787.11 1530.77 1785.17 1531.65 L1785.17 1514.29 Z" fill="#000000" fill-rule="nonzero" fill-opacity="1" /><path clip-path="url(#clip360)" d="M2250.99 1544.91 L2258.63 1544.91 L2258.63 1518.55 L2250.32 1520.21 L2250.32 1515.95 L2258.58 1514.29 L2263.26 1514.29 L2263.26 1544.91 L2270.9 1544.91 L2270.9 1548.85 L2250.99 1548.85 L2250.99 1544.91 Z" fill="#000000" fill-rule="nonzero" fill-opacity="1" /><path clip-path="url(#clip360)" d="M2290.34 1517.37 Q2286.73 1517.37 2284.9 1520.93 Q2283.09 1524.47 2283.09 1531.6 Q2283.09 1538.71 2284.9 1542.27 Q2286.73 1545.82 2290.34 1545.82 Q2293.97 1545.82 2295.78 1542.27 Q2297.61 1538.71 2297.61 1531.6 Q2297.61 1524.47 2295.78 1520.93 Q2293.97 1517.37 2290.34 1517.37 M2290.34 1513.66 Q2296.15 1513.66 2299.21 1518.27 Q2302.28 1522.85 2302.28 1531.6 Q2302.28 1540.33 2299.21 1544.94 Q2296.15 1549.52 2290.34 1549.52 Q2284.53 1549.52 2281.45 1544.94 Q2278.4 1540.33 2278.4 1531.6 Q2278.4 1522.85 2281.45 1518.27 Q2284.53 1513.66 2290.34 1513.66 Z" fill="#000000" fill-rule="nonzero" fill-opacity="1" /><path clip-path="url(#clip360)" d="M2320.5 1517.37 Q2316.89 1517.37 2315.06 1520.93 Q2313.26 1524.47 2313.26 1531.6 Q2313.26 1538.71 2315.06 1542.27 Q2316.89 1545.82 2320.5 1545.82 Q2324.14 1545.82 2325.94 1542.27 Q2327.77 1538.71 2327.77 1531.6 Q2327.77 1524.47 2325.94 1520.93 Q2324.14 1517.37 2320.5 1517.37 M2320.5 1513.66 Q2326.31 1513.66 2329.37 1518.27 Q2332.45 1522.85 2332.45 1531.6 Q2332.45 1540.33 2329.37 1544.94 Q2326.31 1549.52 2320.5 1549.52 Q2314.69 1549.52 2311.61 1544.94 Q2308.56 1540.33 2308.56 1531.6 Q2308.56 1522.85 2311.61 1518.27 Q2314.69 1513.66 2320.5 1513.66 Z" fill="#000000" fill-rule="nonzero" fill-opacity="1" /><polyline clip-path="url(#clip360)" style="stroke:#000000; stroke-linecap:round; stroke-linejoin:round; stroke-width:4; stroke-opacity:1; fill:none" points="184.191,1486.45 184.191,47.2441 "/>
<polyline clip-path="url(#clip360)" style="stroke:#000000; stroke-linecap:round; stroke-linejoin:round; stroke-width:4; stroke-opacity:1; fill:none" points="184.191,1282.9 203.088,1282.9 "/>
<polyline clip-path="url(#clip360)" style="stroke:#000000; stroke-linecap:round; stroke-linejoin:round; stroke-width:4; stroke-opacity:1; fill:none" points="184.191,956.54 203.088,956.54 "/>
<polyline clip-path="url(#clip360)" style="stroke:#000000; stroke-linecap:round; stroke-linejoin:round; stroke-width:4; stroke-opacity:1; fill:none" points="184.191,630.178 203.088,630.178 "/>
<polyline clip-path="url(#clip360)" style="stroke:#000000; stroke-linecap:round; stroke-linejoin:round; stroke-width:4; stroke-opacity:1; fill:none" points="184.191,303.816 203.088,303.816 "/>
<path clip-path="url(#clip360)" d="M51.6634 1296.25 L59.3023 1296.25 L59.3023 1269.88 L50.9921 1271.55 L50.9921 1267.29 L59.256 1265.62 L63.9319 1265.62 L63.9319 1296.25 L71.5707 1296.25 L71.5707 1300.18 L51.6634 1300.18 L51.6634 1296.25 Z" fill="#000000" fill-rule="nonzero" fill-opacity="1" /><path clip-path="url(#clip360)" d="M81.8253 1296.25 L89.4641 1296.25 L89.4641 1269.88 L81.154 1271.55 L81.154 1267.29 L89.4178 1265.62 L94.0937 1265.62 L94.0937 1296.25 L101.733 1296.25 L101.733 1300.18 L81.8253 1300.18 L81.8253 1296.25 Z" fill="#000000" fill-rule="nonzero" fill-opacity="1" /><path clip-path="url(#clip360)" d="M111.177 1294.3 L116.061 1294.3 L116.061 1300.18 L111.177 1300.18 L111.177 1294.3 Z" fill="#000000" fill-rule="nonzero" fill-opacity="1" /><path clip-path="url(#clip360)" d="M136.246 1268.7 Q132.635 1268.7 130.807 1272.27 Q129.001 1275.81 129.001 1282.94 Q129.001 1290.04 130.807 1293.61 Q132.635 1297.15 136.246 1297.15 Q139.881 1297.15 141.686 1293.61 Q143.515 1290.04 143.515 1282.94 Q143.515 1275.81 141.686 1272.27 Q139.881 1268.7 136.246 1268.7 M136.246 1265 Q142.056 1265 145.112 1269.6 Q148.191 1274.19 148.191 1282.94 Q148.191 1291.66 145.112 1296.27 Q142.056 1300.85 136.246 1300.85 Q130.436 1300.85 127.357 1296.27 Q124.302 1291.66 124.302 1282.94 Q124.302 1274.19 127.357 1269.6 Q130.436 1265 136.246 1265 Z" fill="#000000" fill-rule="nonzero" fill-opacity="1" /><path clip-path="url(#clip360)" d="M52.6588 969.885 L60.2976 969.885 L60.2976 943.52 L51.9875 945.186 L51.9875 940.927 L60.2513 939.26 L64.9272 939.26 L64.9272 969.885 L72.5661 969.885 L72.5661 973.82 L52.6588 973.82 L52.6588 969.885 Z" fill="#000000" fill-rule="nonzero" fill-opacity="1" /><path clip-path="url(#clip360)" d="M82.8207 969.885 L90.4595 969.885 L90.4595 943.52 L82.1494 945.186 L82.1494 940.927 L90.4132 939.26 L95.0891 939.26 L95.0891 969.885 L102.728 969.885 L102.728 973.82 L82.8207 973.82 L82.8207 969.885 Z" fill="#000000" fill-rule="nonzero" fill-opacity="1" /><path clip-path="url(#clip360)" d="M112.172 967.941 L117.057 967.941 L117.057 973.82 L112.172 973.82 L112.172 967.941 Z" fill="#000000" fill-rule="nonzero" fill-opacity="1" /><path clip-path="url(#clip360)" d="M127.288 939.26 L145.644 939.26 L145.644 943.196 L131.57 943.196 L131.57 951.668 Q132.589 951.321 133.607 951.159 Q134.626 950.973 135.644 950.973 Q141.431 950.973 144.811 954.145 Q148.191 957.316 148.191 962.733 Q148.191 968.311 144.718 971.413 Q141.246 974.492 134.927 974.492 Q132.751 974.492 130.482 974.121 Q128.237 973.751 125.83 973.01 L125.83 968.311 Q127.913 969.445 130.135 970.001 Q132.357 970.557 134.834 970.557 Q138.839 970.557 141.177 968.45 Q143.515 966.344 143.515 962.733 Q143.515 959.121 141.177 957.015 Q138.839 954.909 134.834 954.909 Q132.959 954.909 131.084 955.325 Q129.232 955.742 127.288 956.621 L127.288 939.26 Z" fill="#000000" fill-rule="nonzero" fill-opacity="1" /><path clip-path="url(#clip360)" d="M51.6634 643.523 L59.3023 643.523 L59.3023 617.157 L50.9921 618.824 L50.9921 614.565 L59.256 612.898 L63.9319 612.898 L63.9319 643.523 L71.5707 643.523 L71.5707 647.458 L51.6634 647.458 L51.6634 643.523 Z" fill="#000000" fill-rule="nonzero" fill-opacity="1" /><path clip-path="url(#clip360)" d="M85.0429 643.523 L101.362 643.523 L101.362 647.458 L79.4179 647.458 L79.4179 643.523 Q82.0799 640.768 86.6632 636.139 Q91.2697 631.486 92.4502 630.143 Q94.6956 627.62 95.5752 625.884 Q96.478 624.125 96.478 622.435 Q96.478 619.681 94.5336 617.944 Q92.6123 616.208 89.5104 616.208 Q87.3114 616.208 84.8577 616.972 Q82.4271 617.736 79.6494 619.287 L79.6494 614.565 Q82.4734 613.431 84.9271 612.852 Q87.3808 612.273 89.4178 612.273 Q94.7882 612.273 97.9826 614.958 Q101.177 617.644 101.177 622.134 Q101.177 624.264 100.367 626.185 Q99.5798 628.083 97.4734 630.676 Q96.8947 631.347 93.7928 634.565 Q90.691 637.759 85.0429 643.523 Z" fill="#000000" fill-rule="nonzero" fill-opacity="1" /><path clip-path="url(#clip360)" d="M111.177 641.579 L116.061 641.579 L116.061 647.458 L111.177 647.458 L111.177 641.579 Z" fill="#000000" fill-rule="nonzero" fill-opacity="1" /><path clip-path="url(#clip360)" d="M136.246 615.977 Q132.635 615.977 130.807 619.542 Q129.001 623.083 129.001 630.213 Q129.001 637.319 130.807 640.884 Q132.635 644.426 136.246 644.426 Q139.881 644.426 141.686 640.884 Q143.515 637.319 143.515 630.213 Q143.515 623.083 141.686 619.542 Q139.881 615.977 136.246 615.977 M136.246 612.273 Q142.056 612.273 145.112 616.88 Q148.191 621.463 148.191 630.213 Q148.191 638.94 145.112 643.546 Q142.056 648.129 136.246 648.129 Q130.436 648.129 127.357 643.546 Q124.302 638.94 124.302 630.213 Q124.302 621.463 127.357 616.88 Q130.436 612.273 136.246 612.273 Z" fill="#000000" fill-rule="nonzero" fill-opacity="1" /><path clip-path="url(#clip360)" d="M52.6588 317.161 L60.2976 317.161 L60.2976 290.795 L51.9875 292.462 L51.9875 288.203 L60.2513 286.536 L64.9272 286.536 L64.9272 317.161 L72.5661 317.161 L72.5661 321.096 L52.6588 321.096 L52.6588 317.161 Z" fill="#000000" fill-rule="nonzero" fill-opacity="1" /><path clip-path="url(#clip360)" d="M86.0382 317.161 L102.358 317.161 L102.358 321.096 L80.4133 321.096 L80.4133 317.161 Q83.0753 314.406 87.6586 309.777 Q92.2651 305.124 93.4456 303.781 Q95.691 301.258 96.5706 299.522 Q97.4734 297.763 97.4734 296.073 Q97.4734 293.318 95.5289 291.582 Q93.6076 289.846 90.5058 289.846 Q88.3067 289.846 85.8531 290.61 Q83.4225 291.374 80.6447 292.925 L80.6447 288.203 Q83.4688 287.068 85.9225 286.49 Q88.3762 285.911 90.4132 285.911 Q95.7836 285.911 98.978 288.596 Q102.172 291.281 102.172 295.772 Q102.172 297.902 101.362 299.823 Q100.575 301.721 98.4687 304.314 Q97.89 304.985 94.7882 308.203 Q91.6864 311.397 86.0382 317.161 Z" fill="#000000" fill-rule="nonzero" fill-opacity="1" /><path clip-path="url(#clip360)" d="M112.172 315.216 L117.057 315.216 L117.057 321.096 L112.172 321.096 L112.172 315.216 Z" fill="#000000" fill-rule="nonzero" fill-opacity="1" /><path clip-path="url(#clip360)" d="M127.288 286.536 L145.644 286.536 L145.644 290.471 L131.57 290.471 L131.57 298.943 Q132.589 298.596 133.607 298.434 Q134.626 298.249 135.644 298.249 Q141.431 298.249 144.811 301.42 Q148.191 304.591 148.191 310.008 Q148.191 315.587 144.718 318.689 Q141.246 321.767 134.927 321.767 Q132.751 321.767 130.482 321.397 Q128.237 321.027 125.83 320.286 L125.83 315.587 Q127.913 316.721 130.135 317.277 Q132.357 317.832 134.834 317.832 Q138.839 317.832 141.177 315.726 Q143.515 313.619 143.515 310.008 Q143.515 306.397 141.177 304.29 Q138.839 302.184 134.834 302.184 Q132.959 302.184 131.084 302.601 Q129.232 303.017 127.288 303.897 L127.288 286.536 Z" fill="#000000" fill-rule="nonzero" fill-opacity="1" /><polyline clip-path="url(#clip362)" style="stroke:#009af9; stroke-linecap:round; stroke-linejoin:round; stroke-width:4; stroke-opacity:1; fill:none" points="245.565,87.9763 266.023,336.99 286.481,535.643 306.94,696.737 327.398,828.537 347.856,936.766 368.314,1025.7 388.772,1098.71 409.23,1158.61 429.689,1207.7 450.147,1247.94 470.605,1280.95 491.063,1308.06 511.521,1330.36 531.979,1348.75 552.438,1363.96 572.896,1376.57 593.354,1387.05 613.812,1395.8 634.27,1403.12 654.728,1409.26 675.187,1414.43 695.645,1418.8 716.103,1422.5 736.561,1425.64 757.019,1428.31 777.477,1430.6 797.936,1432.56 818.394,1434.24 838.852,1435.69 859.31,1436.93 879.768,1438.01 900.226,1438.95 920.685,1439.76 941.143,1440.47 961.601,1441.09 982.059,1441.63 1002.52,1442.1 1022.98,1442.51 1043.43,1442.87 1063.89,1443.19 1084.35,1443.47 1104.81,1443.72 1125.27,1443.94 1145.72,1444.14 1166.18,1444.31 1186.64,1444.46 1207.1,1444.59 1227.56,1444.71 1248.02,1444.82 1268.47,1444.91 1288.93,1445 1309.39,1445.07 1329.85,1445.14 1350.31,1445.2 1370.76,1445.25 1391.22,1445.3 1411.68,1445.34 1432.14,1445.38 1452.6,1445.42 1473.05,1445.45 1493.51,1445.47 1513.97,1445.5 1534.43,1445.52 1554.89,1445.54 1575.35,1445.56 1595.8,1445.57 1616.26,1445.59 1636.72,1445.6 1657.18,1445.61 1677.64,1445.62 1698.09,1445.63 1718.55,1445.64 1739.01,1445.65 1759.47,1445.66 1779.93,1445.66 1800.39,1445.67 1820.84,1445.67 1841.3,1445.68 1861.76,1445.68 1882.22,1445.69 1902.68,1445.69 1923.13,1445.69 1943.59,1445.69 1964.05,1445.7 1984.51,1445.7 2004.97,1445.7 2025.43,1445.7 2045.88,1445.7 2066.34,1445.71 2086.8,1445.71 2107.26,1445.71 2127.72,1445.71 2148.17,1445.71 2168.63,1445.71 2189.09,1445.71 2209.55,1445.71 2230.01,1445.71 2250.47,1445.71 2270.92,1445.72 2291.38,1445.72 "/>
<path clip-path="url(#clip360)" d="M2011.18 198.898 L2280.47 198.898 L2280.47 95.2176 L2011.18 95.2176  Z" fill="#ffffff" fill-rule="evenodd" fill-opacity="1"/>
<polyline clip-path="url(#clip360)" style="stroke:#000000; stroke-linecap:round; stroke-linejoin:round; stroke-width:4; stroke-opacity:1; fill:none" points="2011.18,198.898 2280.47,198.898 2280.47,95.2176 2011.18,95.2176 2011.18,198.898 "/>
<polyline clip-path="url(#clip360)" style="stroke:#009af9; stroke-linecap:round; stroke-linejoin:round; stroke-width:4; stroke-opacity:1; fill:none" points="2035.28,147.058 2179.85,147.058 "/>
<path clip-path="url(#clip360)" d="M2217.79 166.745 Q2215.98 171.375 2214.27 172.787 Q2212.56 174.199 2209.69 174.199 L2206.28 174.199 L2206.28 170.634 L2208.78 170.634 Q2210.54 170.634 2211.51 169.8 Q2212.49 168.967 2213.67 165.865 L2214.43 163.921 L2203.94 138.412 L2208.46 138.412 L2216.56 158.689 L2224.66 138.412 L2229.18 138.412 L2217.79 166.745 Z" fill="#000000" fill-rule="nonzero" fill-opacity="1" /><path clip-path="url(#clip360)" d="M2236.47 160.402 L2244.11 160.402 L2244.11 134.037 L2235.8 135.703 L2235.8 131.444 L2244.06 129.778 L2248.74 129.778 L2248.74 160.402 L2256.38 160.402 L2256.38 164.338 L2236.47 164.338 L2236.47 160.402 Z" fill="#000000" fill-rule="nonzero" fill-opacity="1" /></svg>
