<?xml version="1.0" encoding="utf-8"?>
<svg xmlns="http://www.w3.org/2000/svg" xmlns:xlink="http://www.w3.org/1999/xlink" width="600" height="400" viewBox="0 0 2400 1600">
<defs>
  <clipPath id="clip190">
    <rect x="0" y="0" width="2400" height="1600"/>
  </clipPath>
</defs>
<path clip-path="url(#clip190)" d="M0 1600 L2400 1600 L2400 8.88178e-14 L0 8.88178e-14  Z" fill="#ffffff" fill-rule="evenodd" fill-opacity="1"/>
<defs>
  <clipPath id="clip191">
    <rect x="480" y="0" width="1681" height="1600"/>
  </clipPath>
</defs>
<path clip-path="url(#clip190)" d="M186.274 1486.45 L2352.76 1486.45 L2352.76 47.2441 L186.274 47.2441  Z" fill="#ffffff" fill-rule="evenodd" fill-opacity="1"/>
<defs>
  <clipPath id="clip192">
    <rect x="186" y="47" width="2167" height="1440"/>
  </clipPath>
</defs>
<polyline clip-path="url(#clip192)" style="stroke:#000000; stroke-linecap:round; stroke-linejoin:round; stroke-width:2; stroke-opacity:0.1; fill:none" points="247.59,1486.45 247.59,47.2441 "/>
<polyline clip-path="url(#clip192)" style="stroke:#000000; stroke-linecap:round; stroke-linejoin:round; stroke-width:2; stroke-opacity:0.1; fill:none" points="759.064,1486.45 759.064,47.2441 "/>
<polyline clip-path="url(#clip192)" style="stroke:#000000; stroke-linecap:round; stroke-linejoin:round; stroke-width:2; stroke-opacity:0.1; fill:none" points="1270.54,1486.45 1270.54,47.2441 "/>
<polyline clip-path="url(#clip192)" style="stroke:#000000; stroke-linecap:round; stroke-linejoin:round; stroke-width:2; stroke-opacity:0.1; fill:none" points="1782.01,1486.45 1782.01,47.2441 "/>
<polyline clip-path="url(#clip192)" style="stroke:#000000; stroke-linecap:round; stroke-linejoin:round; stroke-width:2; stroke-opacity:0.1; fill:none" points="2293.49,1486.45 2293.49,47.2441 "/>
<polyline clip-path="url(#clip192)" style="stroke:#000000; stroke-linecap:round; stroke-linejoin:round; stroke-width:2; stroke-opacity:0.1; fill:none" points="186.274,1420.1 2352.76,1420.1 "/>
<polyline clip-path="url(#clip192)" style="stroke:#000000; stroke-linecap:round; stroke-linejoin:round; stroke-width:2; stroke-opacity:0.1; fill:none" points="186.274,1163.92 2352.76,1163.92 "/>
<polyline clip-path="url(#clip192)" style="stroke:#000000; stroke-linecap:round; stroke-linejoin:round; stroke-width:2; stroke-opacity:0.1; fill:none" points="186.274,907.743 2352.76,907.743 "/>
<polyline clip-path="url(#clip192)" style="stroke:#000000; stroke-linecap:round; stroke-linejoin:round; stroke-width:2; stroke-opacity:0.1; fill:none" points="186.274,651.566 2352.76,651.566 "/>
<polyline clip-path="url(#clip192)" style="stroke:#000000; stroke-linecap:round; stroke-linejoin:round; stroke-width:2; stroke-opacity:0.1; fill:none" points="186.274,395.389 2352.76,395.389 "/>
<polyline clip-path="url(#clip192)" style="stroke:#000000; stroke-linecap:round; stroke-linejoin:round; stroke-width:2; stroke-opacity:0.1; fill:none" points="186.274,139.212 2352.76,139.212 "/>
<polyline clip-path="url(#clip190)" style="stroke:#000000; stroke-linecap:round; stroke-linejoin:round; stroke-width:4; stroke-opacity:1; fill:none" points="186.274,1486.45 2352.76,1486.45 "/>
<polyline clip-path="url(#clip190)" style="stroke:#000000; stroke-linecap:round; stroke-linejoin:round; stroke-width:4; stroke-opacity:1; fill:none" points="247.59,1486.45 247.59,1467.55 "/>
<polyline clip-path="url(#clip190)" style="stroke:#000000; stroke-linecap:round; stroke-linejoin:round; stroke-width:4; stroke-opacity:1; fill:none" points="759.064,1486.45 759.064,1467.55 "/>
<polyline clip-path="url(#clip190)" style="stroke:#000000; stroke-linecap:round; stroke-linejoin:round; stroke-width:4; stroke-opacity:1; fill:none" points="1270.54,1486.45 1270.54,1467.55 "/>
<polyline clip-path="url(#clip190)" style="stroke:#000000; stroke-linecap:round; stroke-linejoin:round; stroke-width:4; stroke-opacity:1; fill:none" points="1782.01,1486.45 1782.01,1467.55 "/>
<polyline clip-path="url(#clip190)" style="stroke:#000000; stroke-linecap:round; stroke-linejoin:round; stroke-width:4; stroke-opacity:1; fill:none" points="2293.49,1486.45 2293.49,1467.55 "/>
<path clip-path="url(#clip190)" d="M247.59 1517.37 Q243.978 1517.37 242.15 1520.93 Q240.344 1524.47 240.344 1531.6 Q240.344 1538.71 242.15 1542.27 Q243.978 1545.82 247.59 1545.82 Q251.224 1545.82 253.029 1542.27 Q254.858 1538.71 254.858 1531.6 Q254.858 1524.47 253.029 1520.93 Q251.224 1517.37 247.59 1517.37 M247.59 1513.66 Q253.4 1513.66 256.455 1518.27 Q259.534 1522.85 259.534 1531.6 Q259.534 1540.33 256.455 1544.94 Q253.4 1549.52 247.59 1549.52 Q241.779 1549.52 238.701 1544.94 Q235.645 1540.33 235.645 1531.6 Q235.645 1522.85 238.701 1518.27 Q241.779 1513.66 247.59 1513.66 Z" fill="#000000" fill-rule="nonzero" fill-opacity="1" /><path clip-path="url(#clip190)" d="M722.756 1544.91 L739.075 1544.91 L739.075 1548.85 L717.131 1548.85 L717.131 1544.91 Q719.793 1542.16 724.376 1537.53 Q728.983 1532.88 730.163 1531.53 Q732.409 1529.01 733.288 1527.27 Q734.191 1525.51 734.191 1523.82 Q734.191 1521.07 732.247 1519.33 Q730.325 1517.6 727.224 1517.6 Q725.025 1517.6 722.571 1518.36 Q720.14 1519.13 717.363 1520.68 L717.363 1515.95 Q720.187 1514.82 722.64 1514.24 Q725.094 1513.66 727.131 1513.66 Q732.501 1513.66 735.696 1516.35 Q738.89 1519.03 738.89 1523.52 Q738.89 1525.65 738.08 1527.57 Q737.293 1529.47 735.187 1532.07 Q734.608 1532.74 731.506 1535.95 Q728.404 1539.15 722.756 1544.91 Z" fill="#000000" fill-rule="nonzero" fill-opacity="1" /><path clip-path="url(#clip190)" d="M748.936 1514.29 L767.293 1514.29 L767.293 1518.22 L753.219 1518.22 L753.219 1526.7 Q754.237 1526.35 755.256 1526.19 Q756.274 1526 757.293 1526 Q763.08 1526 766.46 1529.17 Q769.839 1532.34 769.839 1537.76 Q769.839 1543.34 766.367 1546.44 Q762.895 1549.52 756.575 1549.52 Q754.399 1549.52 752.131 1549.15 Q749.886 1548.78 747.478 1548.04 L747.478 1543.34 Q749.561 1544.47 751.784 1545.03 Q754.006 1545.58 756.483 1545.58 Q760.487 1545.58 762.825 1543.48 Q765.163 1541.37 765.163 1537.76 Q765.163 1534.15 762.825 1532.04 Q760.487 1529.94 756.483 1529.94 Q754.608 1529.94 752.733 1530.35 Q750.881 1530.77 748.936 1531.65 L748.936 1514.29 Z" fill="#000000" fill-rule="nonzero" fill-opacity="1" /><path clip-path="url(#clip190)" d="M789.052 1517.37 Q785.441 1517.37 783.612 1520.93 Q781.807 1524.47 781.807 1531.6 Q781.807 1538.71 783.612 1542.27 Q785.441 1545.82 789.052 1545.82 Q792.686 1545.82 794.492 1542.27 Q796.32 1538.71 796.32 1531.6 Q796.32 1524.47 794.492 1520.93 Q792.686 1517.37 789.052 1517.37 M789.052 1513.66 Q794.862 1513.66 797.918 1518.27 Q800.996 1522.85 800.996 1531.6 Q800.996 1540.33 797.918 1544.94 Q794.862 1549.52 789.052 1549.52 Q783.242 1549.52 780.163 1544.94 Q777.108 1540.33 777.108 1531.6 Q777.108 1522.85 780.163 1518.27 Q783.242 1513.66 789.052 1513.66 Z" fill="#000000" fill-rule="nonzero" fill-opacity="1" /><path clip-path="url(#clip190)" d="M1230.16 1514.29 L1248.51 1514.29 L1248.51 1518.22 L1234.44 1518.22 L1234.44 1526.7 Q1235.46 1526.35 1236.48 1526.19 Q1237.49 1526 1238.51 1526 Q1244.3 1526 1247.68 1529.17 Q1251.06 1532.34 1251.06 1537.76 Q1251.06 1543.34 1247.59 1546.44 Q1244.11 1549.52 1237.8 1549.52 Q1235.62 1549.52 1233.35 1549.15 Q1231.11 1548.78 1228.7 1548.04 L1228.7 1543.34 Q1230.78 1544.47 1233 1545.03 Q1235.23 1545.58 1237.7 1545.58 Q1241.71 1545.58 1244.04 1543.48 Q1246.38 1541.37 1246.38 1537.76 Q1246.38 1534.15 1244.04 1532.04 Q1241.71 1529.94 1237.7 1529.94 Q1235.83 1529.94 1233.95 1530.35 Q1232.1 1530.77 1230.16 1531.65 L1230.16 1514.29 Z" fill="#000000" fill-rule="nonzero" fill-opacity="1" /><path clip-path="url(#clip190)" d="M1270.27 1517.37 Q1266.66 1517.37 1264.83 1520.93 Q1263.03 1524.47 1263.03 1531.6 Q1263.03 1538.71 1264.83 1542.27 Q1266.66 1545.82 1270.27 1545.82 Q1273.91 1545.82 1275.71 1542.27 Q1277.54 1538.71 1277.54 1531.6 Q1277.54 1524.47 1275.71 1520.93 Q1273.91 1517.37 1270.27 1517.37 M1270.27 1513.66 Q1276.08 1513.66 1279.14 1518.27 Q1282.22 1522.85 1282.22 1531.6 Q1282.22 1540.33 1279.14 1544.94 Q1276.08 1549.52 1270.27 1549.52 Q1264.46 1549.52 1261.38 1544.94 Q1258.33 1540.33 1258.33 1531.6 Q1258.33 1522.85 1261.38 1518.27 Q1264.46 1513.66 1270.27 1513.66 Z" fill="#000000" fill-rule="nonzero" fill-opacity="1" /><path clip-path="url(#clip190)" d="M1300.43 1517.37 Q1296.82 1517.37 1294.99 1520.93 Q1293.19 1524.47 1293.19 1531.6 Q1293.19 1538.71 1294.99 1542.27 Q1296.82 1545.82 1300.43 1545.82 Q1304.07 1545.82 1305.87 1542.27 Q1307.7 1538.71 1307.7 1531.6 Q1307.7 1524.47 1305.87 1520.93 Q1304.07 1517.37 1300.43 1517.37 M1300.43 1513.66 Q1306.24 1513.66 1309.3 1518.27 Q1312.38 1522.85 1312.38 1531.6 Q1312.38 1540.33 1309.3 1544.94 Q1306.24 1549.52 1300.43 1549.52 Q1294.62 1549.52 1291.54 1544.94 Q1288.49 1540.33 1288.49 1531.6 Q1288.49 1522.85 1291.54 1518.27 Q1294.62 1513.66 1300.43 1513.66 Z" fill="#000000" fill-rule="nonzero" fill-opacity="1" /><path clip-path="url(#clip190)" d="M1740.29 1514.29 L1762.51 1514.29 L1762.51 1516.28 L1749.96 1548.85 L1745.08 1548.85 L1756.88 1518.22 L1740.29 1518.22 L1740.29 1514.29 Z" fill="#000000" fill-rule="nonzero" fill-opacity="1" /><path clip-path="url(#clip190)" d="M1771.68 1514.29 L1790.03 1514.29 L1790.03 1518.22 L1775.96 1518.22 L1775.96 1526.7 Q1776.98 1526.35 1778 1526.19 Q1779.01 1526 1780.03 1526 Q1785.82 1526 1789.2 1529.17 Q1792.58 1532.34 1792.58 1537.76 Q1792.58 1543.34 1789.11 1546.44 Q1785.63 1549.52 1779.32 1549.52 Q1777.14 1549.52 1774.87 1549.15 Q1772.63 1548.78 1770.22 1548.04 L1770.22 1543.34 Q1772.3 1544.47 1774.52 1545.03 Q1776.75 1545.58 1779.22 1545.58 Q1783.23 1545.58 1785.57 1543.48 Q1787.9 1541.37 1787.9 1537.76 Q1787.9 1534.15 1785.57 1532.04 Q1783.23 1529.94 1779.22 1529.94 Q1777.35 1529.94 1775.47 1530.35 Q1773.62 1530.77 1771.68 1531.65 L1771.68 1514.29 Z" fill="#000000" fill-rule="nonzero" fill-opacity="1" /><path clip-path="url(#clip190)" d="M1811.79 1517.37 Q1808.18 1517.37 1806.35 1520.93 Q1804.55 1524.47 1804.55 1531.6 Q1804.55 1538.71 1806.35 1542.27 Q1808.18 1545.82 1811.79 1545.82 Q1815.43 1545.82 1817.23 1542.27 Q1819.06 1538.71 1819.06 1531.6 Q1819.06 1524.47 1817.23 1520.93 Q1815.43 1517.37 1811.79 1517.37 M1811.79 1513.66 Q1817.6 1513.66 1820.66 1518.27 Q1823.74 1522.85 1823.74 1531.6 Q1823.74 1540.33 1820.66 1544.94 Q1817.6 1549.52 1811.79 1549.52 Q1805.98 1549.52 1802.9 1544.94 Q1799.85 1540.33 1799.85 1531.6 Q1799.85 1522.85 1802.9 1518.27 Q1805.98 1513.66 1811.79 1513.66 Z" fill="#000000" fill-rule="nonzero" fill-opacity="1" /><path clip-path="url(#clip190)" d="M2238.01 1544.91 L2245.65 1544.91 L2245.65 1518.55 L2237.34 1520.21 L2237.34 1515.95 L2245.6 1514.29 L2250.28 1514.29 L2250.28 1544.91 L2257.92 1544.91 L2257.92 1548.85 L2238.01 1548.85 L2238.01 1544.91 Z" fill="#000000" fill-rule="nonzero" fill-opacity="1" /><path clip-path="url(#clip190)" d="M2277.36 1517.37 Q2273.75 1517.37 2271.92 1520.93 Q2270.12 1524.47 2270.12 1531.6 Q2270.12 1538.71 2271.92 1542.27 Q2273.75 1545.82 2277.36 1545.82 Q2281 1545.82 2282.8 1542.27 Q2284.63 1538.71 2284.63 1531.6 Q2284.63 1524.47 2282.8 1520.93 Q2281 1517.37 2277.36 1517.37 M2277.36 1513.66 Q2283.17 1513.66 2286.23 1518.27 Q2289.31 1522.85 2289.31 1531.6 Q2289.31 1540.33 2286.23 1544.94 Q2283.17 1549.52 2277.36 1549.52 Q2271.55 1549.52 2268.47 1544.94 Q2265.42 1540.33 2265.42 1531.6 Q2265.42 1522.85 2268.47 1518.27 Q2271.55 1513.66 2277.36 1513.66 Z" fill="#000000" fill-rule="nonzero" fill-opacity="1" /><path clip-path="url(#clip190)" d="M2307.53 1517.37 Q2303.91 1517.37 2302.09 1520.93 Q2300.28 1524.47 2300.28 1531.6 Q2300.28 1538.71 2302.09 1542.27 Q2303.91 1545.82 2307.53 1545.82 Q2311.16 1545.82 2312.97 1542.27 Q2314.79 1538.71 2314.79 1531.6 Q2314.79 1524.47 2312.97 1520.93 Q2311.16 1517.37 2307.53 1517.37 M2307.53 1513.66 Q2313.34 1513.66 2316.39 1518.27 Q2319.47 1522.85 2319.47 1531.6 Q2319.47 1540.33 2316.39 1544.94 Q2313.34 1549.52 2307.53 1549.52 Q2301.72 1549.52 2298.64 1544.94 Q2295.58 1540.33 2295.58 1531.6 Q2295.58 1522.85 2298.64 1518.27 Q2301.72 1513.66 2307.53 1513.66 Z" fill="#000000" fill-rule="nonzero" fill-opacity="1" /><path clip-path="url(#clip190)" d="M2337.69 1517.37 Q2334.08 1517.37 2332.25 1520.93 Q2330.44 1524.47 2330.44 1531.6 Q2330.44 1538.71 2332.25 1542.27 Q2334.08 1545.82 2337.69 1545.82 Q2341.32 1545.82 2343.13 1542.27 Q2344.96 1538.71 2344.96 1531.6 Q2344.96 1524.47 2343.13 1520.93 Q2341.32 1517.37 2337.69 1517.37 M2337.69 1513.66 Q2343.5 1513.66 2346.55 1518.27 Q2349.63 1522.85 2349.63 1531.6 Q2349.63 1540.33 2346.55 1544.94 Q2343.5 1549.52 2337.69 1549.52 Q2331.88 1549.52 2328.8 1544.94 Q2325.74 1540.33 2325.74 1531.6 Q2325.74 1522.85 2328.8 1518.27 Q2331.88 1513.66 2337.69 1513.66 Z" fill="#000000" fill-rule="nonzero" fill-opacity="1" /><polyline clip-path="url(#clip190)" style="stroke:#000000; stroke-linecap:round; stroke-linejoin:round; stroke-width:4; stroke-opacity:1; fill:none" points="186.274,1486.45 186.274,47.2441 "/>
<polyline clip-path="url(#clip190)" style="stroke:#000000; stroke-linecap:round; stroke-linejoin:round; stroke-width:4; stroke-opacity:1; fill:none" points="186.274,1420.1 205.172,1420.1 "/>
<polyline clip-path="url(#clip190)" style="stroke:#000000; stroke-linecap:round; stroke-linejoin:round; stroke-width:4; stroke-opacity:1; fill:none" points="186.274,1163.92 205.172,1163.92 "/>
<polyline clip-path="url(#clip190)" style="stroke:#000000; stroke-linecap:round; stroke-linejoin:round; stroke-width:4; stroke-opacity:1; fill:none" points="186.274,907.743 205.172,907.743 "/>
<polyline clip-path="url(#clip190)" style="stroke:#000000; stroke-linecap:round; stroke-linejoin:round; stroke-width:4; stroke-opacity:1; fill:none" points="186.274,651.566 205.172,651.566 "/>
<polyline clip-path="url(#clip190)" style="stroke:#000000; stroke-linecap:round; stroke-linejoin:round; stroke-width:4; stroke-opacity:1; fill:none" points="186.274,395.389 205.172,395.389 "/>
<polyline clip-path="url(#clip190)" style="stroke:#000000; stroke-linecap:round; stroke-linejoin:round; stroke-width:4; stroke-opacity:1; fill:none" points="186.274,139.212 205.172,139.212 "/>
<path clip-path="url(#clip190)" d="M63.9319 1405.9 Q60.3208 1405.9 58.4921 1409.46 Q56.6865 1413 56.6865 1420.13 Q56.6865 1427.24 58.4921 1430.8 Q60.3208 1434.35 63.9319 1434.35 Q67.5661 1434.35 69.3717 1430.8 Q71.2004 1427.24 71.2004 1420.13 Q71.2004 1413 69.3717 1409.46 Q67.5661 1405.9 63.9319 1405.9 M63.9319 1402.19 Q69.742 1402.19 72.7976 1406.8 Q75.8763 1411.38 75.8763 1420.13 Q75.8763 1428.86 72.7976 1433.47 Q69.742 1438.05 63.9319 1438.05 Q58.1217 1438.05 55.043 1433.47 Q51.9875 1428.86 51.9875 1420.13 Q51.9875 1411.38 55.043 1406.8 Q58.1217 1402.19 63.9319 1402.19 Z" fill="#000000" fill-rule="nonzero" fill-opacity="1" /><path clip-path="url(#clip190)" d="M84.0938 1431.5 L88.978 1431.5 L88.978 1437.38 L84.0938 1437.38 L84.0938 1431.5 Z" fill="#000000" fill-rule="nonzero" fill-opacity="1" /><path clip-path="url(#clip190)" d="M109.742 1418.23 Q106.594 1418.23 104.742 1420.39 Q102.913 1422.54 102.913 1426.29 Q102.913 1430.02 104.742 1432.19 Q106.594 1434.35 109.742 1434.35 Q112.89 1434.35 114.719 1432.19 Q116.57 1430.02 116.57 1426.29 Q116.57 1422.54 114.719 1420.39 Q112.89 1418.23 109.742 1418.23 M119.024 1403.58 L119.024 1407.84 Q117.265 1407.01 115.459 1406.57 Q113.677 1406.13 111.918 1406.13 Q107.288 1406.13 104.834 1409.25 Q102.404 1412.38 102.057 1418.7 Q103.422 1416.68 105.483 1415.62 Q107.543 1414.53 110.02 1414.53 Q115.228 1414.53 118.237 1417.7 Q121.27 1420.85 121.27 1426.29 Q121.27 1431.61 118.121 1434.83 Q114.973 1438.05 109.742 1438.05 Q103.746 1438.05 100.575 1433.47 Q97.4039 1428.86 97.4039 1420.13 Q97.4039 1411.94 101.293 1407.08 Q105.182 1402.19 111.733 1402.19 Q113.492 1402.19 115.274 1402.54 Q117.08 1402.89 119.024 1403.58 Z" fill="#000000" fill-rule="nonzero" fill-opacity="1" /><path clip-path="url(#clip190)" d="M129.371 1402.82 L147.728 1402.82 L147.728 1406.75 L133.654 1406.75 L133.654 1415.23 Q134.672 1414.88 135.691 1414.72 Q136.709 1414.53 137.728 1414.53 Q143.515 1414.53 146.894 1417.7 Q150.274 1420.87 150.274 1426.29 Q150.274 1431.87 146.802 1434.97 Q143.33 1438.05 137.01 1438.05 Q134.834 1438.05 132.566 1437.68 Q130.32 1437.31 127.913 1436.57 L127.913 1431.87 Q129.996 1433 132.219 1433.56 Q134.441 1434.11 136.918 1434.11 Q140.922 1434.11 143.26 1432.01 Q145.598 1429.9 145.598 1426.29 Q145.598 1422.68 143.26 1420.57 Q140.922 1418.47 136.918 1418.47 Q135.043 1418.47 133.168 1418.88 Q131.316 1419.3 129.371 1420.18 L129.371 1402.82 Z" fill="#000000" fill-rule="nonzero" fill-opacity="1" /><path clip-path="url(#clip190)" d="M62.9365 1149.72 Q59.3254 1149.72 57.4967 1153.28 Q55.6912 1156.83 55.6912 1163.96 Q55.6912 1171.06 57.4967 1174.63 Q59.3254 1178.17 62.9365 1178.17 Q66.5707 1178.17 68.3763 1174.63 Q70.205 1171.06 70.205 1163.96 Q70.205 1156.83 68.3763 1153.28 Q66.5707 1149.72 62.9365 1149.72 M62.9365 1146.02 Q68.7467 1146.02 71.8022 1150.62 Q74.8809 1155.21 74.8809 1163.96 Q74.8809 1172.68 71.8022 1177.29 Q68.7467 1181.87 62.9365 1181.87 Q57.1264 1181.87 54.0477 1177.29 Q50.9921 1172.68 50.9921 1163.96 Q50.9921 1155.21 54.0477 1150.62 Q57.1264 1146.02 62.9365 1146.02 Z" fill="#000000" fill-rule="nonzero" fill-opacity="1" /><path clip-path="url(#clip190)" d="M83.0984 1175.32 L87.9827 1175.32 L87.9827 1181.2 L83.0984 1181.2 L83.0984 1175.32 Z" fill="#000000" fill-rule="nonzero" fill-opacity="1" /><path clip-path="url(#clip190)" d="M96.9872 1146.64 L119.209 1146.64 L119.209 1148.63 L106.663 1181.2 L101.779 1181.2 L113.584 1150.58 L96.9872 1150.58 L96.9872 1146.64 Z" fill="#000000" fill-rule="nonzero" fill-opacity="1" /><path clip-path="url(#clip190)" d="M138.33 1149.72 Q134.719 1149.72 132.89 1153.28 Q131.084 1156.83 131.084 1163.96 Q131.084 1171.06 132.89 1174.63 Q134.719 1178.17 138.33 1178.17 Q141.964 1178.17 143.769 1174.63 Q145.598 1171.06 145.598 1163.96 Q145.598 1156.83 143.769 1153.28 Q141.964 1149.72 138.33 1149.72 M138.33 1146.02 Q144.14 1146.02 147.195 1150.62 Q150.274 1155.21 150.274 1163.96 Q150.274 1172.68 147.195 1177.29 Q144.14 1181.87 138.33 1181.87 Q132.519 1181.87 129.441 1177.29 Q126.385 1172.68 126.385 1163.96 Q126.385 1155.21 129.441 1150.62 Q132.519 1146.02 138.33 1146.02 Z" fill="#000000" fill-rule="nonzero" fill-opacity="1" /><path clip-path="url(#clip190)" d="M63.9319 893.542 Q60.3208 893.542 58.4921 897.107 Q56.6865 900.649 56.6865 907.778 Q56.6865 914.885 58.4921 918.449 Q60.3208 921.991 63.9319 921.991 Q67.5661 921.991 69.3717 918.449 Q71.2004 914.885 71.2004 907.778 Q71.2004 900.649 69.3717 897.107 Q67.5661 893.542 63.9319 893.542 M63.9319 889.838 Q69.742 889.838 72.7976 894.445 Q75.8763 899.028 75.8763 907.778 Q75.8763 916.505 72.7976 921.111 Q69.742 925.695 63.9319 925.695 Q58.1217 925.695 55.043 921.111 Q51.9875 916.505 51.9875 907.778 Q51.9875 899.028 55.043 894.445 Q58.1217 889.838 63.9319 889.838 Z" fill="#000000" fill-rule="nonzero" fill-opacity="1" /><path clip-path="url(#clip190)" d="M84.0938 919.144 L88.978 919.144 L88.978 925.023 L84.0938 925.023 L84.0938 919.144 Z" fill="#000000" fill-rule="nonzero" fill-opacity="1" /><path clip-path="url(#clip190)" d="M97.9826 890.463 L120.205 890.463 L120.205 892.454 L107.658 925.023 L102.774 925.023 L114.58 894.399 L97.9826 894.399 L97.9826 890.463 Z" fill="#000000" fill-rule="nonzero" fill-opacity="1" /><path clip-path="url(#clip190)" d="M129.371 890.463 L147.728 890.463 L147.728 894.399 L133.654 894.399 L133.654 902.871 Q134.672 902.524 135.691 902.362 Q136.709 902.176 137.728 902.176 Q143.515 902.176 146.894 905.348 Q150.274 908.519 150.274 913.936 Q150.274 919.514 146.802 922.616 Q143.33 925.695 137.01 925.695 Q134.834 925.695 132.566 925.324 Q130.32 924.954 127.913 924.213 L127.913 919.514 Q129.996 920.648 132.219 921.204 Q134.441 921.76 136.918 921.76 Q140.922 921.76 143.26 919.653 Q145.598 917.547 145.598 913.936 Q145.598 910.324 143.26 908.218 Q140.922 906.112 136.918 906.112 Q135.043 906.112 133.168 906.528 Q131.316 906.945 129.371 907.824 L129.371 890.463 Z" fill="#000000" fill-rule="nonzero" fill-opacity="1" /><path clip-path="url(#clip190)" d="M62.9365 637.365 Q59.3254 637.365 57.4967 640.93 Q55.6912 644.471 55.6912 651.601 Q55.6912 658.707 57.4967 662.272 Q59.3254 665.814 62.9365 665.814 Q66.5707 665.814 68.3763 662.272 Q70.205 658.707 70.205 651.601 Q70.205 644.471 68.3763 640.93 Q66.5707 637.365 62.9365 637.365 M62.9365 633.661 Q68.7467 633.661 71.8022 638.268 Q74.8809 642.851 74.8809 651.601 Q74.8809 660.328 71.8022 664.934 Q68.7467 669.518 62.9365 669.518 Q57.1264 669.518 54.0477 664.934 Q50.9921 660.328 50.9921 651.601 Q50.9921 642.851 54.0477 638.268 Q57.1264 633.661 62.9365 633.661 Z" fill="#000000" fill-rule="nonzero" fill-opacity="1" /><path clip-path="url(#clip190)" d="M83.0984 662.967 L87.9827 662.967 L87.9827 668.846 L83.0984 668.846 L83.0984 662.967 Z" fill="#000000" fill-rule="nonzero" fill-opacity="1" /><path clip-path="url(#clip190)" d="M108.168 652.434 Q104.834 652.434 102.913 654.217 Q101.015 655.999 101.015 659.124 Q101.015 662.249 102.913 664.031 Q104.834 665.814 108.168 665.814 Q111.501 665.814 113.422 664.031 Q115.344 662.226 115.344 659.124 Q115.344 655.999 113.422 654.217 Q111.524 652.434 108.168 652.434 M103.492 650.444 Q100.483 649.703 98.7928 647.643 Q97.1261 645.582 97.1261 642.62 Q97.1261 638.476 100.066 636.069 Q103.029 633.661 108.168 633.661 Q113.33 633.661 116.27 636.069 Q119.209 638.476 119.209 642.62 Q119.209 645.582 117.52 647.643 Q115.853 649.703 112.867 650.444 Q116.246 651.231 118.121 653.522 Q120.02 655.814 120.02 659.124 Q120.02 664.147 116.941 666.832 Q113.885 669.518 108.168 669.518 Q102.45 669.518 99.3715 666.832 Q96.316 664.147 96.316 659.124 Q96.316 655.814 98.2141 653.522 Q100.112 651.231 103.492 650.444 M101.779 643.059 Q101.779 645.744 103.446 647.249 Q105.135 648.754 108.168 648.754 Q111.177 648.754 112.867 647.249 Q114.58 645.744 114.58 643.059 Q114.58 640.374 112.867 638.87 Q111.177 637.365 108.168 637.365 Q105.135 637.365 103.446 638.87 Q101.779 640.374 101.779 643.059 Z" fill="#000000" fill-rule="nonzero" fill-opacity="1" /><path clip-path="url(#clip190)" d="M138.33 637.365 Q134.719 637.365 132.89 640.93 Q131.084 644.471 131.084 651.601 Q131.084 658.707 132.89 662.272 Q134.719 665.814 138.33 665.814 Q141.964 665.814 143.769 662.272 Q145.598 658.707 145.598 651.601 Q145.598 644.471 143.769 640.93 Q141.964 637.365 138.33 637.365 M138.33 633.661 Q144.14 633.661 147.195 638.268 Q150.274 642.851 150.274 651.601 Q150.274 660.328 147.195 664.934 Q144.14 669.518 138.33 669.518 Q132.519 669.518 129.441 664.934 Q126.385 660.328 126.385 651.601 Q126.385 642.851 129.441 638.268 Q132.519 633.661 138.33 633.661 Z" fill="#000000" fill-rule="nonzero" fill-opacity="1" /><path clip-path="url(#clip190)" d="M63.9319 381.188 Q60.3208 381.188 58.4921 384.752 Q56.6865 388.294 56.6865 395.424 Q56.6865 402.53 58.4921 406.095 Q60.3208 409.637 63.9319 409.637 Q67.5661 409.637 69.3717 406.095 Q71.2004 402.53 71.2004 395.424 Q71.2004 388.294 69.3717 384.752 Q67.5661 381.188 63.9319 381.188 M63.9319 377.484 Q69.742 377.484 72.7976 382.09 Q75.8763 386.674 75.8763 395.424 Q75.8763 404.151 72.7976 408.757 Q69.742 413.34 63.9319 413.34 Q58.1217 413.34 55.043 408.757 Q51.9875 404.151 51.9875 395.424 Q51.9875 386.674 55.043 382.09 Q58.1217 377.484 63.9319 377.484 Z" fill="#000000" fill-rule="nonzero" fill-opacity="1" /><path clip-path="url(#clip190)" d="M84.0938 406.789 L88.978 406.789 L88.978 412.669 L84.0938 412.669 L84.0938 406.789 Z" fill="#000000" fill-rule="nonzero" fill-opacity="1" /><path clip-path="url(#clip190)" d="M109.163 396.257 Q105.83 396.257 103.909 398.039 Q102.01 399.822 102.01 402.947 Q102.01 406.072 103.909 407.854 Q105.83 409.637 109.163 409.637 Q112.496 409.637 114.418 407.854 Q116.339 406.049 116.339 402.947 Q116.339 399.822 114.418 398.039 Q112.52 396.257 109.163 396.257 M104.487 394.266 Q101.478 393.526 99.7882 391.465 Q98.1215 389.405 98.1215 386.442 Q98.1215 382.299 101.061 379.891 Q104.024 377.484 109.163 377.484 Q114.325 377.484 117.265 379.891 Q120.205 382.299 120.205 386.442 Q120.205 389.405 118.515 391.465 Q116.848 393.526 113.862 394.266 Q117.242 395.053 119.117 397.345 Q121.015 399.637 121.015 402.947 Q121.015 407.97 117.936 410.655 Q114.881 413.34 109.163 413.34 Q103.446 413.34 100.367 410.655 Q97.3113 407.97 97.3113 402.947 Q97.3113 399.637 99.2095 397.345 Q101.108 395.053 104.487 394.266 M102.774 386.882 Q102.774 389.567 104.441 391.072 Q106.131 392.576 109.163 392.576 Q112.172 392.576 113.862 391.072 Q115.575 389.567 115.575 386.882 Q115.575 384.197 113.862 382.692 Q112.172 381.188 109.163 381.188 Q106.131 381.188 104.441 382.692 Q102.774 384.197 102.774 386.882 Z" fill="#000000" fill-rule="nonzero" fill-opacity="1" /><path clip-path="url(#clip190)" d="M129.371 378.109 L147.728 378.109 L147.728 382.044 L133.654 382.044 L133.654 390.516 Q134.672 390.169 135.691 390.007 Q136.709 389.822 137.728 389.822 Q143.515 389.822 146.894 392.993 Q150.274 396.164 150.274 401.581 Q150.274 407.16 146.802 410.262 Q143.33 413.34 137.01 413.34 Q134.834 413.34 132.566 412.97 Q130.32 412.6 127.913 411.859 L127.913 407.16 Q129.996 408.294 132.219 408.85 Q134.441 409.405 136.918 409.405 Q140.922 409.405 143.26 407.299 Q145.598 405.192 145.598 401.581 Q145.598 397.97 143.26 395.864 Q140.922 393.757 136.918 393.757 Q135.043 393.757 133.168 394.174 Q131.316 394.59 129.371 395.47 L129.371 378.109 Z" fill="#000000" fill-rule="nonzero" fill-opacity="1" /><path clip-path="url(#clip190)" d="M62.9365 125.01 Q59.3254 125.01 57.4967 128.575 Q55.6912 132.117 55.6912 139.246 Q55.6912 146.353 57.4967 149.918 Q59.3254 153.459 62.9365 153.459 Q66.5707 153.459 68.3763 149.918 Q70.205 146.353 70.205 139.246 Q70.205 132.117 68.3763 128.575 Q66.5707 125.01 62.9365 125.01 M62.9365 121.307 Q68.7467 121.307 71.8022 125.913 Q74.8809 130.496 74.8809 139.246 Q74.8809 147.973 71.8022 152.58 Q68.7467 157.163 62.9365 157.163 Q57.1264 157.163 54.0477 152.58 Q50.9921 147.973 50.9921 139.246 Q50.9921 130.496 54.0477 125.913 Q57.1264 121.307 62.9365 121.307 Z" fill="#000000" fill-rule="nonzero" fill-opacity="1" /><path clip-path="url(#clip190)" d="M83.0984 150.612 L87.9827 150.612 L87.9827 156.492 L83.0984 156.492 L83.0984 150.612 Z" fill="#000000" fill-rule="nonzero" fill-opacity="1" /><path clip-path="url(#clip190)" d="M98.3067 155.774 L98.3067 151.515 Q100.066 152.348 101.871 152.788 Q103.677 153.228 105.413 153.228 Q110.043 153.228 112.473 150.126 Q114.927 147.001 115.274 140.658 Q113.932 142.649 111.871 143.714 Q109.811 144.779 107.311 144.779 Q102.126 144.779 99.0937 141.654 Q96.0845 138.506 96.0845 133.066 Q96.0845 127.742 99.2326 124.524 Q102.381 121.307 107.612 121.307 Q113.608 121.307 116.756 125.913 Q119.927 130.496 119.927 139.246 Q119.927 147.418 116.038 152.302 Q112.172 157.163 105.621 157.163 Q103.862 157.163 102.057 156.816 Q100.251 156.469 98.3067 155.774 M107.612 141.121 Q110.76 141.121 112.589 138.969 Q114.441 136.816 114.441 133.066 Q114.441 129.339 112.589 127.186 Q110.76 125.01 107.612 125.01 Q104.464 125.01 102.612 127.186 Q100.784 129.339 100.784 133.066 Q100.784 136.816 102.612 138.969 Q104.464 141.121 107.612 141.121 Z" fill="#000000" fill-rule="nonzero" fill-opacity="1" /><path clip-path="url(#clip190)" d="M138.33 125.01 Q134.719 125.01 132.89 128.575 Q131.084 132.117 131.084 139.246 Q131.084 146.353 132.89 149.918 Q134.719 153.459 138.33 153.459 Q141.964 153.459 143.769 149.918 Q145.598 146.353 145.598 139.246 Q145.598 132.117 143.769 128.575 Q141.964 125.01 138.33 125.01 M138.33 121.307 Q144.14 121.307 147.195 125.913 Q150.274 130.496 150.274 139.246 Q150.274 147.973 147.195 152.58 Q144.14 157.163 138.33 157.163 Q132.519 157.163 129.441 152.58 Q126.385 147.973 126.385 139.246 Q126.385 130.496 129.441 125.913 Q132.519 121.307 138.33 121.307 Z" fill="#000000" fill-rule="nonzero" fill-opacity="1" /><polyline clip-path="url(#clip192)" style="stroke:#009af9; stroke-linecap:round; stroke-linejoin:round; stroke-width:4; stroke-opacity:1; fill:none" points="247.59,933.361 249.635,754.037 251.681,933.361 253.727,1292.01 255.773,1189.54 257.819,1035.83 259.865,1010.21 261.911,1215.16 263.957,1163.92 266.003,1445.72 268.048,1266.39 270.094,1087.07 272.14,1189.54 274.186,933.361 276.232,1138.3 278.278,856.508 280.324,1035.83 282.37,779.655 284.416,882.126 286.462,830.89 288.507,830.89 290.553,984.597 292.599,830.89 294.645,728.419 296.691,1189.54 298.737,907.743 300.783,651.566 302.829,754.037 304.875,754.037 306.921,830.89 308.966,830.89 311.012,651.566 313.058,728.419 315.104,805.273 317.15,728.419 319.196,702.802 321.242,805.273 323.288,574.713 325.334,549.095 327.38,754.037 329.425,600.331 331.471,523.478 333.517,754.037 335.563,677.184 337.609,651.566 339.655,497.86 341.701,651.566 343.747,549.095 345.793,549.095 347.838,369.771 349.884,523.478 351.93,779.655 353.976,446.624 356.022,600.331 358.068,421.007 360.114,369.771 362.16,344.154 364.206,421.007 366.252,318.536 368.297,344.154 370.343,241.683 372.389,472.242 374.435,139.212 376.481,472.242 378.527,292.918 380.573,549.095 382.619,318.536 384.665,421.007 386.711,113.594 388.756,523.478 390.802,600.331 392.848,421.007 394.894,472.242 396.94,497.86 398.986,190.447 401.032,318.536 403.078,574.713 405.124,625.948 407.169,369.771 409.215,164.829 411.261,318.536 413.307,472.242 415.353,574.713 417.399,446.624 419.445,292.918 421.491,523.478 423.537,497.86 425.583,549.095 427.628,446.624 429.674,113.594 431.72,292.918 433.766,369.771 435.812,497.86 437.858,369.771 439.904,446.624 441.95,600.331 443.996,472.242 446.042,395.389 448.087,318.536 450.133,369.771 452.179,446.624 454.225,651.566 456.271,241.683 458.317,523.478 460.363,830.89 462.409,600.331 464.455,497.86 466.5,625.948 468.546,292.918 470.592,472.242 472.638,625.948 474.684,421.007 476.73,421.007 478.776,677.184 480.822,216.065 482.868,728.419 484.914,446.624 486.959,523.478 489.005,651.566 491.051,600.331 493.097,395.389 495.143,702.802 497.189,318.536 499.235,369.771 501.281,369.771 503.327,446.624 505.373,421.007 507.418,651.566 509.464,523.478 511.51,523.478 513.556,446.624 515.602,549.095 517.648,549.095 519.694,395.389 521.74,446.624 523.786,446.624 525.831,421.007 527.877,344.154 529.923,574.713 531.969,292.918 534.015,625.948 536.061,292.918 538.107,292.918 540.153,574.713 542.199,318.536 544.245,549.095 546.29,344.154 548.336,395.389 550.382,523.478 552.428,241.683 554.474,267.3 556.52,344.154 558.566,395.389 560.612,574.713 562.658,369.771 564.704,318.536 566.749,574.713 568.795,292.918 570.841,241.683 572.887,677.184 574.933,421.007 576.979,600.331 579.025,421.007 581.071,318.536 583.117,292.918 585.162,549.095 587.208,369.771 589.254,728.419 591.3,472.242 593.346,395.389 595.392,702.802 597.438,292.918 599.484,241.683 601.53,472.242 603.576,600.331 605.621,497.86 607.667,318.536 609.713,600.331 611.759,113.594 613.805,267.3 615.851,728.419 617.897,574.713 619.943,523.478 621.989,446.624 624.035,318.536 626.08,421.007 628.126,497.86 630.172,421.007 632.218,497.86 634.264,779.655 636.31,395.389 638.356,421.007 640.402,472.242 642.448,421.007 644.493,549.095 646.539,472.242 648.585,625.948 650.631,190.447 652.677,549.095 654.723,421.007 656.769,574.713 658.815,549.095 660.861,549.095 662.907,395.389 664.952,549.095 666.998,395.389 669.044,523.478 671.09,344.154 673.136,292.918 675.182,625.948 677.228,369.771 679.274,677.184 681.32,344.154 683.366,267.3 685.411,267.3 687.457,267.3 689.503,549.095 691.549,318.536 693.595,472.242 695.641,318.536 697.687,446.624 699.733,369.771 701.779,702.802 703.825,677.184 705.87,395.389 707.916,574.713 709.962,190.447 712.008,395.389 714.054,497.86 716.1,267.3 718.146,472.242 720.192,446.624 722.238,625.948 724.283,241.683 726.329,574.713 728.375,395.389 730.421,241.683 732.467,549.095 734.513,625.948 736.559,318.536 738.605,216.065 740.651,395.389 742.697,472.242 744.742,574.713 746.788,523.478 748.834,318.536 750.88,600.331 752.926,472.242 754.972,677.184 757.018,472.242 759.064,523.478 761.11,292.918 763.156,497.86 765.201,292.918 767.247,344.154 769.293,292.918 771.339,395.389 773.385,600.331 775.431,344.154 777.477,651.566 779.523,497.86 781.569,421.007 783.614,549.095 785.66,600.331 787.706,523.478 789.752,344.154 791.798,600.331 793.844,574.713 795.89,344.154 797.936,369.771 799.982,369.771 802.028,395.389 804.073,497.86 806.119,574.713 808.165,523.478 810.211,523.478 812.257,574.713 814.303,369.771 816.349,421.007 818.395,369.771 820.441,369.771 822.487,677.184 824.532,344.154 826.578,241.683 828.624,651.566 830.67,344.154 832.716,267.3 834.762,421.007 836.808,190.447 838.854,446.624 840.9,421.007 842.945,395.389 844.991,318.536 847.037,497.86 849.083,292.918 851.129,472.242 853.175,395.389 855.221,497.86 857.267,472.242 859.313,625.948 861.359,318.536 863.404,318.536 865.45,267.3 867.496,549.095 869.542,677.184 871.588,625.948 873.634,267.3 875.68,472.242 877.726,549.095 879.772,549.095 881.818,292.918 883.863,625.948 885.909,190.447 887.955,421.007 890.001,446.624 892.047,292.918 894.093,574.713 896.139,702.802 898.185,369.771 900.231,292.918 902.276,472.242 904.322,369.771 906.368,549.095 908.414,292.918 910.46,472.242 912.506,497.86 914.552,523.478 916.598,472.242 918.644,446.624 920.69,446.624 922.735,267.3 924.781,574.713 926.827,344.154 928.873,472.242 930.919,497.86 932.965,395.389 935.011,292.918 937.057,677.184 939.103,472.242 941.149,421.007 943.194,472.242 945.24,472.242 947.286,216.065 949.332,267.3 951.378,497.86 953.424,318.536 955.47,267.3 957.516,369.771 959.562,497.86 961.607,549.095 963.653,728.419 965.699,497.86 967.745,497.86 969.791,421.007 971.837,421.007 973.883,344.154 975.929,395.389 977.975,549.095 980.021,830.89 982.066,549.095 984.112,318.536 986.158,369.771 988.204,369.771 990.25,549.095 992.296,472.242 994.342,702.802 996.388,395.389 998.434,523.478 1000.48,523.478 1002.53,344.154 1004.57,318.536 1006.62,625.948 1008.66,472.242 1010.71,472.242 1012.75,625.948 1014.8,369.771 1016.85,651.566 1018.89,267.3 1020.94,830.89 1022.98,472.242 1025.03,472.242 1027.08,113.594 1029.12,446.624 1031.17,497.86 1033.21,292.918 1035.26,702.802 1037.31,754.037 1039.35,395.389 1041.4,344.154 1043.44,677.184 1045.49,651.566 1047.54,497.86 1049.58,318.536 1051.63,600.331 1053.67,421.007 1055.72,523.478 1057.76,446.624 1059.81,574.713 1061.86,472.242 1063.9,497.86 1065.95,421.007 1067.99,267.3 1070.04,446.624 1072.09,344.154 1074.13,600.331 1076.18,395.389 1078.22,805.273 1080.27,395.389 1082.32,395.389 1084.36,574.713 1086.41,728.419 1088.45,805.273 1090.5,421.007 1092.54,702.802 1094.59,292.918 1096.64,702.802 1098.68,369.771 1100.73,497.86 1102.77,472.242 1104.82,600.331 1106.87,318.536 1108.91,395.389 1110.96,344.154 1113,369.771 1115.05,318.536 1117.1,216.065 1119.14,446.624 1121.19,241.683 1123.23,318.536 1125.28,395.389 1127.33,472.242 1129.37,779.655 1131.42,625.948 1133.46,497.86 1135.51,549.095 1137.55,318.536 1139.6,292.918 1141.65,87.9763 1143.69,446.624 1145.74,318.536 1147.78,344.154 1149.83,421.007 1151.88,421.007 1153.92,344.154 1155.97,625.948 1158.01,497.86 1160.06,395.389 1162.11,446.624 1164.15,318.536 1166.2,369.771 1168.24,369.771 1170.29,344.154 1172.33,446.624 1174.38,497.86 1176.43,318.536 1178.47,344.154 1180.52,241.683 1182.56,369.771 1184.61,267.3 1186.66,549.095 1188.7,472.242 1190.75,523.478 1192.79,600.331 1194.84,395.389 1196.89,344.154 1198.93,369.771 1200.98,549.095 1203.02,446.624 1205.07,344.154 1207.12,395.389 1209.16,421.007 1211.21,369.771 1213.25,549.095 1215.3,292.918 1217.34,421.007 1219.39,574.713 1221.44,446.624 1223.48,421.007 1225.53,241.683 1227.57,497.86 1229.62,523.478 1231.67,267.3 1233.71,292.918 1235.76,318.536 1237.8,190.447 1239.85,472.242 1241.9,292.918 1243.94,497.86 1245.99,497.86 1248.03,292.918 1250.08,292.918 1252.12,472.242 1254.17,344.154 1256.22,472.242 1258.26,216.065 1260.31,241.683 1262.35,651.566 1264.4,369.771 1266.45,421.007 1268.49,497.86 1270.54,472.242 1272.58,677.184 1274.63,318.536 1276.68,267.3 1278.72,421.007 1280.77,267.3 1282.81,446.624 1284.86,472.242 1286.91,421.007 1288.95,369.771 1291,267.3 1293.04,549.095 1295.09,523.478 1297.13,267.3 1299.18,472.242 1301.23,523.478 1303.27,369.771 1305.32,241.683 1307.36,395.389 1309.41,446.624 1311.46,395.389 1313.5,600.331 1315.55,395.389 1317.59,344.154 1319.64,472.242 1321.69,625.948 1323.73,369.771 1325.78,369.771 1327.82,395.389 1329.87,702.802 1331.91,446.624 1333.96,292.918 1336.01,318.536 1338.05,267.3 1340.1,446.624 1342.14,421.007 1344.19,421.007 1346.24,472.242 1348.28,549.095 1350.33,497.86 1352.37,369.771 1354.42,216.065 1356.47,395.389 1358.51,369.771 1360.56,497.86 1362.6,241.683 1364.65,344.154 1366.7,574.713 1368.74,421.007 1370.79,446.624 1372.83,549.095 1374.88,344.154 1376.92,344.154 1378.97,600.331 1381.02,344.154 1383.06,754.037 1385.11,446.624 1387.15,600.331 1389.2,446.624 1391.25,728.419 1393.29,344.154 1395.34,497.86 1397.38,446.624 1399.43,395.389 1401.48,344.154 1403.52,472.242 1405.57,369.771 1407.61,446.624 1409.66,446.624 1411.7,882.126 1413.75,497.86 1415.8,523.478 1417.84,164.829 1419.89,574.713 1421.93,446.624 1423.98,472.242 1426.03,344.154 1428.07,754.037 1430.12,549.095 1432.16,395.389 1434.21,574.713 1436.26,369.771 1438.3,446.624 1440.35,292.918 1442.39,446.624 1444.44,549.095 1446.49,677.184 1448.53,369.771 1450.58,497.86 1452.62,446.624 1454.67,549.095 1456.71,421.007 1458.76,395.389 1460.81,574.713 1462.85,241.683 1464.9,292.918 1466.94,472.242 1468.99,421.007 1471.04,446.624 1473.08,497.86 1475.13,677.184 1477.17,497.86 1479.22,472.242 1481.27,497.86 1483.31,421.007 1485.36,754.037 1487.4,318.536 1489.45,549.095 1491.49,472.242 1493.54,395.389 1495.59,549.095 1497.63,651.566 1499.68,677.184 1501.72,497.86 1503.77,241.683 1505.82,421.007 1507.86,523.478 1509.91,292.918 1511.95,677.184 1514,472.242 1516.05,651.566 1518.09,421.007 1520.14,395.389 1522.18,472.242 1524.23,421.007 1526.27,395.389 1528.32,395.389 1530.37,318.536 1532.41,625.948 1534.46,625.948 1536.5,574.713 1538.55,600.331 1540.6,421.007 1542.64,754.037 1544.69,600.331 1546.73,523.478 1548.78,497.86 1550.83,421.007 1552.87,549.095 1554.92,369.771 1556.96,421.007 1559.01,190.447 1561.06,446.624 1563.1,472.242 1565.15,421.007 1567.19,369.771 1569.24,344.154 1571.28,651.566 1573.33,446.624 1575.38,344.154 1577.42,190.447 1579.47,446.624 1581.51,446.624 1583.56,369.771 1585.61,446.624 1587.65,702.802 1589.7,318.536 1591.74,651.566 1593.79,369.771 1595.84,446.624 1597.88,241.683 1599.93,446.624 1601.97,472.242 1604.02,421.007 1606.06,651.566 1608.11,728.419 1610.16,446.624 1612.2,523.478 1614.25,549.095 1616.29,292.918 1618.34,677.184 1620.39,395.389 1622.43,369.771 1624.48,472.242 1626.52,395.389 1628.57,446.624 1630.62,369.771 1632.66,395.389 1634.71,421.007 1636.75,625.948 1638.8,395.389 1640.85,472.242 1642.89,369.771 1644.94,472.242 1646.98,395.389 1649.03,625.948 1651.07,369.771 1653.12,625.948 1655.17,344.154 1657.21,677.184 1659.26,625.948 1661.3,446.624 1663.35,523.478 1665.4,395.389 1667.44,369.771 1669.49,344.154 1671.53,446.624 1673.58,395.389 1675.63,523.478 1677.67,421.007 1679.72,472.242 1681.76,677.184 1683.81,574.713 1685.85,292.918 1687.9,369.771 1689.95,318.536 1691.99,267.3 1694.04,395.389 1696.08,216.065 1698.13,497.86 1700.18,651.566 1702.22,523.478 1704.27,549.095 1706.31,318.536 1708.36,344.154 1710.41,574.713 1712.45,702.802 1714.5,344.154 1716.54,421.007 1718.59,267.3 1720.64,446.624 1722.68,267.3 1724.73,421.007 1726.77,497.86 1728.82,472.242 1730.86,164.829 1732.91,523.478 1734.96,600.331 1737,549.095 1739.05,369.771 1741.09,292.918 1743.14,677.184 1745.19,574.713 1747.23,523.478 1749.28,472.242 1751.32,651.566 1753.37,677.184 1755.42,139.212 1757.46,497.86 1759.51,344.154 1761.55,523.478 1763.6,369.771 1765.64,549.095 1767.69,216.065 1769.74,497.86 1771.78,549.095 1773.83,549.095 1775.87,216.065 1777.92,421.007 1779.97,497.86 1782.01,318.536 1784.06,574.713 1786.1,369.771 1788.15,369.771 1790.2,523.478 1792.24,651.566 1794.29,472.242 1796.33,472.242 1798.38,369.771 1800.43,446.624 1802.47,318.536 1804.52,267.3 1806.56,139.212 1808.61,472.242 1810.65,369.771 1812.7,421.007 1814.75,549.095 1816.79,318.536 1818.84,421.007 1820.88,267.3 1822.93,241.683 1824.98,651.566 1827.02,369.771 1829.07,446.624 1831.11,421.007 1833.16,574.713 1835.21,497.86 1837.25,344.154 1839.3,421.007 1841.34,574.713 1843.39,292.918 1845.43,549.095 1847.48,523.478 1849.53,267.3 1851.57,702.802 1853.62,369.771 1855.66,549.095 1857.71,728.419 1859.76,267.3 1861.8,446.624 1863.85,523.478 1865.89,139.212 1867.94,292.918 1869.99,369.771 1872.03,344.154 1874.08,779.655 1876.12,754.037 1878.17,472.242 1880.22,523.478 1882.26,139.212 1884.31,702.802 1886.35,421.007 1888.4,421.007 1890.44,472.242 1892.49,574.713 1894.54,421.007 1896.58,421.007 1898.63,497.86 1900.67,600.331 1902.72,497.86 1904.77,267.3 1906.81,549.095 1908.86,395.389 1910.9,472.242 1912.95,523.478 1915,421.007 1917.04,523.478 1919.09,421.007 1921.13,421.007 1923.18,344.154 1925.22,241.683 1927.27,600.331 1929.32,446.624 1931.36,369.771 1933.41,446.624 1935.45,549.095 1937.5,369.771 1939.55,318.536 1941.59,292.918 1943.64,472.242 1945.68,446.624 1947.73,216.065 1949.78,523.478 1951.82,472.242 1953.87,369.771 1955.91,523.478 1957.96,292.918 1960.01,779.655 1962.05,472.242 1964.1,318.536 1966.14,446.624 1968.19,523.478 1970.23,523.478 1972.28,446.624 1974.33,395.389 1976.37,139.212 1978.42,446.624 1980.46,549.095 1982.51,497.86 1984.56,446.624 1986.6,113.594 1988.65,702.802 1990.69,472.242 1992.74,779.655 1994.79,651.566 1996.83,292.918 1998.88,369.771 2000.92,549.095 2002.97,446.624 2005.01,267.3 2007.06,446.624 2009.11,369.771 2011.15,702.802 2013.2,574.713 2015.24,549.095 2017.29,421.007 2019.34,369.771 2021.38,625.948 2023.43,574.713 2025.47,318.536 2027.52,421.007 2029.57,446.624 2031.61,421.007 2033.66,523.478 2035.7,395.389 2037.75,292.918 2039.8,472.242 2041.84,421.007 2043.89,369.771 2045.93,421.007 2047.98,600.331 2050.02,523.478 2052.07,421.007 2054.12,779.655 2056.16,318.536 2058.21,574.713 2060.25,523.478 2062.3,292.918 2064.35,677.184 2066.39,523.478 2068.44,549.095 2070.48,292.918 2072.53,344.154 2074.58,625.948 2076.62,549.095 2078.67,164.829 2080.71,574.713 2082.76,549.095 2084.8,677.184 2086.85,190.447 2088.9,369.771 2090.94,574.713 2092.99,395.389 2095.03,472.242 2097.08,549.095 2099.13,549.095 2101.17,318.536 2103.22,369.771 2105.26,292.918 2107.31,446.624 2109.36,421.007 2111.4,395.389 2113.45,497.86 2115.49,625.948 2117.54,523.478 2119.59,216.065 2121.63,87.9763 2123.68,549.095 2125.72,574.713 2127.77,344.154 2129.81,446.624 2131.86,472.242 2133.91,344.154 2135.95,625.948 2138,421.007 2140.04,421.007 2142.09,216.065 2144.14,600.331 2146.18,625.948 2148.23,600.331 2150.27,292.918 2152.32,344.154 2154.37,446.624 2156.41,369.771 2158.46,523.478 2160.5,497.86 2162.55,241.683 2164.59,421.007 2166.64,856.508 2168.69,677.184 2170.73,549.095 2172.78,677.184 2174.82,318.536 2176.87,292.918 2178.92,369.771 2180.96,395.389 2183.01,216.065 2185.05,421.007 2187.1,600.331 2189.15,190.447 2191.19,446.624 2193.24,344.154 2195.28,369.771 2197.33,395.389 2199.38,292.918 2201.42,651.566 2203.47,292.918 2205.51,292.918 2207.56,574.713 2209.6,395.389 2211.65,421.007 2213.7,446.624 2215.74,395.389 2217.79,318.536 2219.83,292.918 2221.88,702.802 2223.93,446.624 2225.97,318.536 2228.02,395.389 2230.06,600.331 2232.11,472.242 2234.16,497.86 2236.2,651.566 2238.25,574.713 2240.29,446.624 2242.34,497.86 2244.38,600.331 2246.43,267.3 2248.48,574.713 2250.52,421.007 2252.57,523.478 2254.61,421.007 2256.66,139.212 2258.71,395.389 2260.75,651.566 2262.8,574.713 2264.84,241.683 2266.89,446.624 2268.94,421.007 2270.98,292.918 2273.03,421.007 2275.07,549.095 2277.12,549.095 2279.16,369.771 2281.21,523.478 2283.26,292.918 2285.3,728.419 2287.35,164.829 2289.39,497.86 2291.44,113.594 "/>
<path clip-path="url(#clip190)" d="M2011.46 1438.47 L2280.54 1438.47 L2280.54 1334.79 L2011.46 1334.79  Z" fill="#ffffff" fill-rule="evenodd" fill-opacity="1"/>
<polyline clip-path="url(#clip190)" style="stroke:#000000; stroke-linecap:round; stroke-linejoin:round; stroke-width:4; stroke-opacity:1; fill:none" points="2011.46,1438.47 2280.54,1438.47 2280.54,1334.79 2011.46,1334.79 2011.46,1438.47 "/>
<polyline clip-path="url(#clip190)" style="stroke:#009af9; stroke-linecap:round; stroke-linejoin:round; stroke-width:4; stroke-opacity:1; fill:none" points="2035.53,1386.63 2179.97,1386.63 "/>
<path clip-path="url(#clip190)" d="M2217.88 1406.32 Q2216.07 1410.95 2214.36 1412.36 Q2212.65 1413.78 2209.78 1413.78 L2206.38 1413.78 L2206.38 1410.21 L2208.88 1410.21 Q2210.63 1410.21 2211.61 1409.38 Q2212.58 1408.54 2213.76 1405.44 L2214.52 1403.5 L2204.04 1377.99 L2208.55 1377.99 L2216.65 1398.27 L2224.76 1377.99 L2229.27 1377.99 L2217.88 1406.32 Z" fill="#000000" fill-rule="nonzero" fill-opacity="1" /><path clip-path="url(#clip190)" d="M2236.56 1399.98 L2244.2 1399.98 L2244.2 1373.61 L2235.89 1375.28 L2235.89 1371.02 L2244.15 1369.35 L2248.83 1369.35 L2248.83 1399.98 L2256.47 1399.98 L2256.47 1403.91 L2236.56 1403.91 L2236.56 1399.98 Z" fill="#000000" fill-rule="nonzero" fill-opacity="1" /></svg>
