<?xml version="1.0" encoding="utf-8"?>
<svg xmlns="http://www.w3.org/2000/svg" xmlns:xlink="http://www.w3.org/1999/xlink" width="600" height="400" viewBox="0 0 2400 1600">
<defs>
  <clipPath id="clip130">
    <rect x="0" y="0" width="2400" height="1600"/>
  </clipPath>
</defs>
<path clip-path="url(#clip130)" d="M0 1600 L2400 1600 L2400 8.88178e-14 L0 8.88178e-14  Z" fill="#ffffff" fill-rule="evenodd" fill-opacity="1"/>
<defs>
  <clipPath id="clip131">
    <rect x="480" y="0" width="1681" height="1600"/>
  </clipPath>
</defs>
<path clip-path="url(#clip130)" d="M139.446 1486.45 L2352.76 1486.45 L2352.76 47.2441 L139.446 47.2441  Z" fill="#ffffff" fill-rule="evenodd" fill-opacity="1"/>
<defs>
  <clipPath id="clip132">
    <rect x="139" y="47" width="2214" height="1440"/>
  </clipPath>
</defs>
<polyline clip-path="url(#clip132)" style="stroke:#000000; stroke-linecap:round; stroke-linejoin:round; stroke-width:2; stroke-opacity:0.1; fill:none" points="202.086,1486.45 202.086,47.2441 "/>
<polyline clip-path="url(#clip132)" style="stroke:#000000; stroke-linecap:round; stroke-linejoin:round; stroke-width:2; stroke-opacity:0.1; fill:none" points="724.094,1486.45 724.094,47.2441 "/>
<polyline clip-path="url(#clip132)" style="stroke:#000000; stroke-linecap:round; stroke-linejoin:round; stroke-width:2; stroke-opacity:0.1; fill:none" points="1246.1,1486.45 1246.1,47.2441 "/>
<polyline clip-path="url(#clip132)" style="stroke:#000000; stroke-linecap:round; stroke-linejoin:round; stroke-width:2; stroke-opacity:0.1; fill:none" points="1768.11,1486.45 1768.11,47.2441 "/>
<polyline clip-path="url(#clip132)" style="stroke:#000000; stroke-linecap:round; stroke-linejoin:round; stroke-width:2; stroke-opacity:0.1; fill:none" points="2290.12,1486.45 2290.12,47.2441 "/>
<polyline clip-path="url(#clip132)" style="stroke:#000000; stroke-linecap:round; stroke-linejoin:round; stroke-width:2; stroke-opacity:0.1; fill:none" points="139.446,1382.78 2352.76,1382.78 "/>
<polyline clip-path="url(#clip132)" style="stroke:#000000; stroke-linecap:round; stroke-linejoin:round; stroke-width:2; stroke-opacity:0.1; fill:none" points="139.446,1190.67 2352.76,1190.67 "/>
<polyline clip-path="url(#clip132)" style="stroke:#000000; stroke-linecap:round; stroke-linejoin:round; stroke-width:2; stroke-opacity:0.1; fill:none" points="139.446,998.568 2352.76,998.568 "/>
<polyline clip-path="url(#clip132)" style="stroke:#000000; stroke-linecap:round; stroke-linejoin:round; stroke-width:2; stroke-opacity:0.1; fill:none" points="139.446,806.461 2352.76,806.461 "/>
<polyline clip-path="url(#clip132)" style="stroke:#000000; stroke-linecap:round; stroke-linejoin:round; stroke-width:2; stroke-opacity:0.1; fill:none" points="139.446,614.355 2352.76,614.355 "/>
<polyline clip-path="url(#clip132)" style="stroke:#000000; stroke-linecap:round; stroke-linejoin:round; stroke-width:2; stroke-opacity:0.1; fill:none" points="139.446,422.248 2352.76,422.248 "/>
<polyline clip-path="url(#clip132)" style="stroke:#000000; stroke-linecap:round; stroke-linejoin:round; stroke-width:2; stroke-opacity:0.1; fill:none" points="139.446,230.142 2352.76,230.142 "/>
<polyline clip-path="url(#clip130)" style="stroke:#000000; stroke-linecap:round; stroke-linejoin:round; stroke-width:4; stroke-opacity:1; fill:none" points="139.446,1486.45 2352.76,1486.45 "/>
<polyline clip-path="url(#clip130)" style="stroke:#000000; stroke-linecap:round; stroke-linejoin:round; stroke-width:4; stroke-opacity:1; fill:none" points="202.086,1486.45 202.086,1467.55 "/>
<polyline clip-path="url(#clip130)" style="stroke:#000000; stroke-linecap:round; stroke-linejoin:round; stroke-width:4; stroke-opacity:1; fill:none" points="724.094,1486.45 724.094,1467.55 "/>
<polyline clip-path="url(#clip130)" style="stroke:#000000; stroke-linecap:round; stroke-linejoin:round; stroke-width:4; stroke-opacity:1; fill:none" points="1246.1,1486.45 1246.1,1467.55 "/>
<polyline clip-path="url(#clip130)" style="stroke:#000000; stroke-linecap:round; stroke-linejoin:round; stroke-width:4; stroke-opacity:1; fill:none" points="1768.11,1486.45 1768.11,1467.55 "/>
<polyline clip-path="url(#clip130)" style="stroke:#000000; stroke-linecap:round; stroke-linejoin:round; stroke-width:4; stroke-opacity:1; fill:none" points="2290.12,1486.45 2290.12,1467.55 "/>
<path clip-path="url(#clip130)" d="M202.086 1517.37 Q198.475 1517.37 196.647 1520.93 Q194.841 1524.47 194.841 1531.6 Q194.841 1538.71 196.647 1542.27 Q198.475 1545.82 202.086 1545.82 Q205.721 1545.82 207.526 1542.27 Q209.355 1538.71 209.355 1531.6 Q209.355 1524.47 207.526 1520.93 Q205.721 1517.37 202.086 1517.37 M202.086 1513.66 Q207.897 1513.66 210.952 1518.27 Q214.031 1522.85 214.031 1531.6 Q214.031 1540.33 210.952 1544.94 Q207.897 1549.52 202.086 1549.52 Q196.276 1549.52 193.198 1544.94 Q190.142 1540.33 190.142 1531.6 Q190.142 1522.85 193.198 1518.27 Q196.276 1513.66 202.086 1513.66 Z" fill="#000000" fill-rule="nonzero" fill-opacity="1" /><path clip-path="url(#clip130)" d="M683.712 1514.29 L702.068 1514.29 L702.068 1518.22 L687.994 1518.22 L687.994 1526.7 Q689.013 1526.35 690.031 1526.19 Q691.05 1526 692.068 1526 Q697.855 1526 701.235 1529.17 Q704.615 1532.34 704.615 1537.76 Q704.615 1543.34 701.142 1546.44 Q697.67 1549.52 691.351 1549.52 Q689.175 1549.52 686.906 1549.15 Q684.661 1548.78 682.254 1548.04 L682.254 1543.34 Q684.337 1544.47 686.559 1545.03 Q688.781 1545.58 691.258 1545.58 Q695.263 1545.58 697.601 1543.48 Q699.939 1541.37 699.939 1537.76 Q699.939 1534.15 697.601 1532.04 Q695.263 1529.94 691.258 1529.94 Q689.383 1529.94 687.508 1530.35 Q685.656 1530.77 683.712 1531.65 L683.712 1514.29 Z" fill="#000000" fill-rule="nonzero" fill-opacity="1" /><path clip-path="url(#clip130)" d="M723.827 1517.37 Q720.216 1517.37 718.388 1520.93 Q716.582 1524.47 716.582 1531.6 Q716.582 1538.71 718.388 1542.27 Q720.216 1545.82 723.827 1545.82 Q727.462 1545.82 729.267 1542.27 Q731.096 1538.71 731.096 1531.6 Q731.096 1524.47 729.267 1520.93 Q727.462 1517.37 723.827 1517.37 M723.827 1513.66 Q729.638 1513.66 732.693 1518.27 Q735.772 1522.85 735.772 1531.6 Q735.772 1540.33 732.693 1544.94 Q729.638 1549.52 723.827 1549.52 Q718.017 1549.52 714.939 1544.94 Q711.883 1540.33 711.883 1531.6 Q711.883 1522.85 714.939 1518.27 Q718.017 1513.66 723.827 1513.66 Z" fill="#000000" fill-rule="nonzero" fill-opacity="1" /><path clip-path="url(#clip130)" d="M753.989 1517.37 Q750.378 1517.37 748.549 1520.93 Q746.744 1524.47 746.744 1531.6 Q746.744 1538.71 748.549 1542.27 Q750.378 1545.82 753.989 1545.82 Q757.623 1545.82 759.429 1542.27 Q761.258 1538.71 761.258 1531.6 Q761.258 1524.47 759.429 1520.93 Q757.623 1517.37 753.989 1517.37 M753.989 1513.66 Q759.799 1513.66 762.855 1518.27 Q765.934 1522.85 765.934 1531.6 Q765.934 1540.33 762.855 1544.94 Q759.799 1549.52 753.989 1549.52 Q748.179 1549.52 745.1 1544.94 Q742.045 1540.33 742.045 1531.6 Q742.045 1522.85 745.1 1518.27 Q748.179 1513.66 753.989 1513.66 Z" fill="#000000" fill-rule="nonzero" fill-opacity="1" /><path clip-path="url(#clip130)" d="M1190.63 1544.91 L1198.27 1544.91 L1198.27 1518.55 L1189.96 1520.21 L1189.96 1515.95 L1198.22 1514.29 L1202.89 1514.29 L1202.89 1544.91 L1210.53 1544.91 L1210.53 1548.85 L1190.63 1548.85 L1190.63 1544.91 Z" fill="#000000" fill-rule="nonzero" fill-opacity="1" /><path clip-path="url(#clip130)" d="M1229.98 1517.37 Q1226.37 1517.37 1224.54 1520.93 Q1222.73 1524.47 1222.73 1531.6 Q1222.73 1538.71 1224.54 1542.27 Q1226.37 1545.82 1229.98 1545.82 Q1233.61 1545.82 1235.42 1542.27 Q1237.25 1538.71 1237.25 1531.6 Q1237.25 1524.47 1235.42 1520.93 Q1233.61 1517.37 1229.98 1517.37 M1229.98 1513.66 Q1235.79 1513.66 1238.84 1518.27 Q1241.92 1522.85 1241.92 1531.6 Q1241.92 1540.33 1238.84 1544.94 Q1235.79 1549.52 1229.98 1549.52 Q1224.17 1549.52 1221.09 1544.94 Q1218.03 1540.33 1218.03 1531.6 Q1218.03 1522.85 1221.09 1518.27 Q1224.17 1513.66 1229.98 1513.66 Z" fill="#000000" fill-rule="nonzero" fill-opacity="1" /><path clip-path="url(#clip130)" d="M1260.14 1517.37 Q1256.53 1517.37 1254.7 1520.93 Q1252.89 1524.47 1252.89 1531.6 Q1252.89 1538.71 1254.7 1542.27 Q1256.53 1545.82 1260.14 1545.82 Q1263.77 1545.82 1265.58 1542.27 Q1267.41 1538.71 1267.41 1531.6 Q1267.41 1524.47 1265.58 1520.93 Q1263.77 1517.37 1260.14 1517.37 M1260.14 1513.66 Q1265.95 1513.66 1269.01 1518.27 Q1272.08 1522.85 1272.08 1531.6 Q1272.08 1540.33 1269.01 1544.94 Q1265.95 1549.52 1260.14 1549.52 Q1254.33 1549.52 1251.25 1544.94 Q1248.2 1540.33 1248.2 1531.6 Q1248.2 1522.85 1251.25 1518.27 Q1254.33 1513.66 1260.14 1513.66 Z" fill="#000000" fill-rule="nonzero" fill-opacity="1" /><path clip-path="url(#clip130)" d="M1290.3 1517.37 Q1286.69 1517.37 1284.86 1520.93 Q1283.06 1524.47 1283.06 1531.6 Q1283.06 1538.71 1284.86 1542.27 Q1286.69 1545.82 1290.3 1545.82 Q1293.94 1545.82 1295.74 1542.27 Q1297.57 1538.71 1297.57 1531.6 Q1297.57 1524.47 1295.74 1520.93 Q1293.94 1517.37 1290.3 1517.37 M1290.3 1513.66 Q1296.11 1513.66 1299.17 1518.27 Q1302.25 1522.85 1302.25 1531.6 Q1302.25 1540.33 1299.17 1544.94 Q1296.11 1549.52 1290.3 1549.52 Q1284.49 1549.52 1281.41 1544.94 Q1278.36 1540.33 1278.36 1531.6 Q1278.36 1522.85 1281.41 1518.27 Q1284.49 1513.66 1290.3 1513.66 Z" fill="#000000" fill-rule="nonzero" fill-opacity="1" /><path clip-path="url(#clip130)" d="M1712.63 1544.91 L1720.27 1544.91 L1720.27 1518.55 L1711.96 1520.21 L1711.96 1515.95 L1720.23 1514.29 L1724.9 1514.29 L1724.9 1544.91 L1732.54 1544.91 L1732.54 1548.85 L1712.63 1548.85 L1712.63 1544.91 Z" fill="#000000" fill-rule="nonzero" fill-opacity="1" /><path clip-path="url(#clip130)" d="M1742.03 1514.29 L1760.39 1514.29 L1760.39 1518.22 L1746.31 1518.22 L1746.31 1526.7 Q1747.33 1526.35 1748.35 1526.19 Q1749.37 1526 1750.39 1526 Q1756.18 1526 1759.55 1529.17 Q1762.93 1532.34 1762.93 1537.76 Q1762.93 1543.34 1759.46 1546.44 Q1755.99 1549.52 1749.67 1549.52 Q1747.49 1549.52 1745.23 1549.15 Q1742.98 1548.78 1740.57 1548.04 L1740.57 1543.34 Q1742.66 1544.47 1744.88 1545.03 Q1747.1 1545.58 1749.58 1545.58 Q1753.58 1545.58 1755.92 1543.48 Q1758.26 1541.37 1758.26 1537.76 Q1758.26 1534.15 1755.92 1532.04 Q1753.58 1529.94 1749.58 1529.94 Q1747.7 1529.94 1745.83 1530.35 Q1743.98 1530.77 1742.03 1531.65 L1742.03 1514.29 Z" fill="#000000" fill-rule="nonzero" fill-opacity="1" /><path clip-path="url(#clip130)" d="M1782.15 1517.37 Q1778.54 1517.37 1776.71 1520.93 Q1774.9 1524.47 1774.9 1531.6 Q1774.9 1538.71 1776.71 1542.27 Q1778.54 1545.82 1782.15 1545.82 Q1785.78 1545.82 1787.59 1542.27 Q1789.42 1538.71 1789.42 1531.6 Q1789.42 1524.47 1787.59 1520.93 Q1785.78 1517.37 1782.15 1517.37 M1782.15 1513.66 Q1787.96 1513.66 1791.01 1518.27 Q1794.09 1522.85 1794.09 1531.6 Q1794.09 1540.33 1791.01 1544.94 Q1787.96 1549.52 1782.15 1549.52 Q1776.34 1549.52 1773.26 1544.94 Q1770.2 1540.33 1770.2 1531.6 Q1770.2 1522.85 1773.26 1518.27 Q1776.34 1513.66 1782.15 1513.66 Z" fill="#000000" fill-rule="nonzero" fill-opacity="1" /><path clip-path="url(#clip130)" d="M1812.31 1517.37 Q1808.7 1517.37 1806.87 1520.93 Q1805.06 1524.47 1805.06 1531.6 Q1805.06 1538.71 1806.87 1542.27 Q1808.7 1545.82 1812.31 1545.82 Q1815.94 1545.82 1817.75 1542.27 Q1819.58 1538.71 1819.58 1531.6 Q1819.58 1524.47 1817.75 1520.93 Q1815.94 1517.37 1812.31 1517.37 M1812.31 1513.66 Q1818.12 1513.66 1821.17 1518.27 Q1824.25 1522.85 1824.25 1531.6 Q1824.25 1540.33 1821.17 1544.94 Q1818.12 1549.52 1812.31 1549.52 Q1806.5 1549.52 1803.42 1544.94 Q1800.36 1540.33 1800.36 1531.6 Q1800.36 1522.85 1803.42 1518.27 Q1806.5 1513.66 1812.31 1513.66 Z" fill="#000000" fill-rule="nonzero" fill-opacity="1" /><path clip-path="url(#clip130)" d="M2238.73 1544.91 L2255.05 1544.91 L2255.05 1548.85 L2233.1 1548.85 L2233.1 1544.91 Q2235.76 1542.16 2240.35 1537.53 Q2244.95 1532.88 2246.13 1531.53 Q2248.38 1529.01 2249.26 1527.27 Q2250.16 1525.51 2250.16 1523.82 Q2250.16 1521.07 2248.22 1519.33 Q2246.3 1517.6 2243.19 1517.6 Q2240.99 1517.6 2238.54 1518.36 Q2236.11 1519.13 2233.33 1520.68 L2233.33 1515.95 Q2236.16 1514.82 2238.61 1514.24 Q2241.06 1513.66 2243.1 1513.66 Q2248.47 1513.66 2251.67 1516.35 Q2254.86 1519.03 2254.86 1523.52 Q2254.86 1525.65 2254.05 1527.57 Q2253.26 1529.47 2251.16 1532.07 Q2250.58 1532.74 2247.48 1535.95 Q2244.37 1539.15 2238.73 1544.91 Z" fill="#000000" fill-rule="nonzero" fill-opacity="1" /><path clip-path="url(#clip130)" d="M2274.86 1517.37 Q2271.25 1517.37 2269.42 1520.93 Q2267.62 1524.47 2267.62 1531.6 Q2267.62 1538.71 2269.42 1542.27 Q2271.25 1545.82 2274.86 1545.82 Q2278.49 1545.82 2280.3 1542.27 Q2282.13 1538.71 2282.13 1531.6 Q2282.13 1524.47 2280.3 1520.93 Q2278.49 1517.37 2274.86 1517.37 M2274.86 1513.66 Q2280.67 1513.66 2283.73 1518.27 Q2286.8 1522.85 2286.8 1531.6 Q2286.8 1540.33 2283.73 1544.94 Q2280.67 1549.52 2274.86 1549.52 Q2269.05 1549.52 2265.97 1544.94 Q2262.92 1540.33 2262.92 1531.6 Q2262.92 1522.85 2265.97 1518.27 Q2269.05 1513.66 2274.86 1513.66 Z" fill="#000000" fill-rule="nonzero" fill-opacity="1" /><path clip-path="url(#clip130)" d="M2305.02 1517.37 Q2301.41 1517.37 2299.58 1520.93 Q2297.78 1524.47 2297.78 1531.6 Q2297.78 1538.71 2299.58 1542.27 Q2301.41 1545.82 2305.02 1545.82 Q2308.66 1545.82 2310.46 1542.27 Q2312.29 1538.71 2312.29 1531.6 Q2312.29 1524.47 2310.46 1520.93 Q2308.66 1517.37 2305.02 1517.37 M2305.02 1513.66 Q2310.83 1513.66 2313.89 1518.27 Q2316.97 1522.85 2316.97 1531.6 Q2316.97 1540.33 2313.89 1544.94 Q2310.83 1549.52 2305.02 1549.52 Q2299.21 1549.52 2296.13 1544.94 Q2293.08 1540.33 2293.08 1531.6 Q2293.08 1522.85 2296.13 1518.27 Q2299.21 1513.66 2305.02 1513.66 Z" fill="#000000" fill-rule="nonzero" fill-opacity="1" /><path clip-path="url(#clip130)" d="M2335.18 1517.37 Q2331.57 1517.37 2329.74 1520.93 Q2327.94 1524.47 2327.94 1531.6 Q2327.94 1538.71 2329.74 1542.27 Q2331.57 1545.82 2335.18 1545.82 Q2338.82 1545.82 2340.62 1542.27 Q2342.45 1538.71 2342.45 1531.6 Q2342.45 1524.47 2340.62 1520.93 Q2338.82 1517.37 2335.18 1517.37 M2335.18 1513.66 Q2340.99 1513.66 2344.05 1518.27 Q2347.13 1522.85 2347.13 1531.6 Q2347.13 1540.33 2344.05 1544.94 Q2340.99 1549.52 2335.18 1549.52 Q2329.37 1549.52 2326.3 1544.94 Q2323.24 1540.33 2323.24 1531.6 Q2323.24 1522.85 2326.3 1518.27 Q2329.37 1513.66 2335.18 1513.66 Z" fill="#000000" fill-rule="nonzero" fill-opacity="1" /><polyline clip-path="url(#clip130)" style="stroke:#000000; stroke-linecap:round; stroke-linejoin:round; stroke-width:4; stroke-opacity:1; fill:none" points="139.446,1486.45 139.446,47.2441 "/>
<polyline clip-path="url(#clip130)" style="stroke:#000000; stroke-linecap:round; stroke-linejoin:round; stroke-width:4; stroke-opacity:1; fill:none" points="139.446,1382.78 158.343,1382.78 "/>
<polyline clip-path="url(#clip130)" style="stroke:#000000; stroke-linecap:round; stroke-linejoin:round; stroke-width:4; stroke-opacity:1; fill:none" points="139.446,1190.67 158.343,1190.67 "/>
<polyline clip-path="url(#clip130)" style="stroke:#000000; stroke-linecap:round; stroke-linejoin:round; stroke-width:4; stroke-opacity:1; fill:none" points="139.446,998.568 158.343,998.568 "/>
<polyline clip-path="url(#clip130)" style="stroke:#000000; stroke-linecap:round; stroke-linejoin:round; stroke-width:4; stroke-opacity:1; fill:none" points="139.446,806.461 158.343,806.461 "/>
<polyline clip-path="url(#clip130)" style="stroke:#000000; stroke-linecap:round; stroke-linejoin:round; stroke-width:4; stroke-opacity:1; fill:none" points="139.446,614.355 158.343,614.355 "/>
<polyline clip-path="url(#clip130)" style="stroke:#000000; stroke-linecap:round; stroke-linejoin:round; stroke-width:4; stroke-opacity:1; fill:none" points="139.446,422.248 158.343,422.248 "/>
<polyline clip-path="url(#clip130)" style="stroke:#000000; stroke-linecap:round; stroke-linejoin:round; stroke-width:4; stroke-opacity:1; fill:none" points="139.446,230.142 158.343,230.142 "/>
<path clip-path="url(#clip130)" d="M91.9178 1380.92 Q88.7697 1380.92 86.9179 1383.07 Q85.0892 1385.22 85.0892 1388.97 Q85.0892 1392.7 86.9179 1394.88 Q88.7697 1397.03 91.9178 1397.03 Q95.066 1397.03 96.8947 1394.88 Q98.7465 1392.7 98.7465 1388.97 Q98.7465 1385.22 96.8947 1383.07 Q95.066 1380.92 91.9178 1380.92 M101.2 1366.26 L101.2 1370.52 Q99.4409 1369.69 97.6354 1369.25 Q95.853 1368.81 94.0937 1368.81 Q89.4641 1368.81 87.0105 1371.94 Q84.5799 1375.06 84.2327 1381.38 Q85.5984 1379.37 87.6586 1378.3 Q89.7188 1377.21 92.1956 1377.21 Q97.4039 1377.21 100.413 1380.39 Q103.446 1383.53 103.446 1388.97 Q103.446 1394.3 100.297 1397.51 Q97.1493 1400.73 91.9178 1400.73 Q85.9225 1400.73 82.7512 1396.15 Q79.5799 1391.54 79.5799 1382.82 Q79.5799 1374.62 83.4688 1369.76 Q87.3577 1364.88 93.9086 1364.88 Q95.6678 1364.88 97.4502 1365.22 Q99.2558 1365.57 101.2 1366.26 Z" fill="#000000" fill-rule="nonzero" fill-opacity="1" /><path clip-path="url(#clip130)" d="M91.5938 1191.54 Q88.2604 1191.54 86.3392 1193.32 Q84.441 1195.11 84.441 1198.23 Q84.441 1201.36 86.3392 1203.14 Q88.2604 1204.92 91.5938 1204.92 Q94.9271 1204.92 96.8484 1203.14 Q98.7696 1201.33 98.7696 1198.23 Q98.7696 1195.11 96.8484 1193.32 Q94.9502 1191.54 91.5938 1191.54 M86.9179 1189.55 Q83.9086 1188.81 82.2188 1186.75 Q80.5522 1184.69 80.5522 1181.73 Q80.5522 1177.58 83.492 1175.18 Q86.4549 1172.77 91.5938 1172.77 Q96.7558 1172.77 99.6956 1175.18 Q102.635 1177.58 102.635 1181.73 Q102.635 1184.69 100.946 1186.75 Q99.2789 1188.81 96.2928 1189.55 Q99.6724 1190.34 101.547 1192.63 Q103.446 1194.92 103.446 1198.23 Q103.446 1203.26 100.367 1205.94 Q97.3113 1208.63 91.5938 1208.63 Q85.8762 1208.63 82.7975 1205.94 Q79.742 1203.26 79.742 1198.23 Q79.742 1194.92 81.6401 1192.63 Q83.5382 1190.34 86.9179 1189.55 M85.2049 1182.17 Q85.2049 1184.85 86.8716 1186.36 Q88.5614 1187.86 91.5938 1187.86 Q94.603 1187.86 96.2928 1186.36 Q98.0058 1184.85 98.0058 1182.17 Q98.0058 1179.48 96.2928 1177.98 Q94.603 1176.47 91.5938 1176.47 Q88.5614 1176.47 86.8716 1177.98 Q85.2049 1179.48 85.2049 1182.17 Z" fill="#000000" fill-rule="nonzero" fill-opacity="1" /><path clip-path="url(#clip130)" d="M52.1495 1011.91 L59.7884 1011.91 L59.7884 985.547 L51.4782 987.214 L51.4782 982.955 L59.7421 981.288 L64.418 981.288 L64.418 1011.91 L72.0568 1011.91 L72.0568 1015.85 L52.1495 1015.85 L52.1495 1011.91 Z" fill="#000000" fill-rule="nonzero" fill-opacity="1" /><path clip-path="url(#clip130)" d="M91.5012 984.367 Q87.8901 984.367 86.0614 987.931 Q84.2558 991.473 84.2558 998.603 Q84.2558 1005.71 86.0614 1009.27 Q87.8901 1012.82 91.5012 1012.82 Q95.1354 1012.82 96.941 1009.27 Q98.7696 1005.71 98.7696 998.603 Q98.7696 991.473 96.941 987.931 Q95.1354 984.367 91.5012 984.367 M91.5012 980.663 Q97.3113 980.663 100.367 985.269 Q103.446 989.853 103.446 998.603 Q103.446 1007.33 100.367 1011.94 Q97.3113 1016.52 91.5012 1016.52 Q85.691 1016.52 82.6123 1011.94 Q79.5568 1007.33 79.5568 998.603 Q79.5568 989.853 82.6123 985.269 Q85.691 980.663 91.5012 980.663 Z" fill="#000000" fill-rule="nonzero" fill-opacity="1" /><path clip-path="url(#clip130)" d="M53.7467 819.806 L61.3856 819.806 L61.3856 793.441 L53.0754 795.107 L53.0754 790.848 L61.3393 789.181 L66.0152 789.181 L66.0152 819.806 L73.654 819.806 L73.654 823.741 L53.7467 823.741 L53.7467 819.806 Z" fill="#000000" fill-rule="nonzero" fill-opacity="1" /><path clip-path="url(#clip130)" d="M87.1262 819.806 L103.446 819.806 L103.446 823.741 L81.5012 823.741 L81.5012 819.806 Q84.1632 817.052 88.7466 812.422 Q93.353 807.769 94.5336 806.427 Q96.7789 803.903 97.6585 802.167 Q98.5613 800.408 98.5613 798.718 Q98.5613 795.964 96.6169 794.228 Q94.6956 792.491 91.5938 792.491 Q89.3947 792.491 86.941 793.255 Q84.5105 794.019 81.7327 795.57 L81.7327 790.848 Q84.5568 789.714 87.0105 789.135 Q89.4641 788.556 91.5012 788.556 Q96.8715 788.556 100.066 791.241 Q103.26 793.927 103.26 798.417 Q103.26 800.547 102.45 802.468 Q101.663 804.366 99.5567 806.959 Q98.978 807.63 95.8761 810.848 Q92.7743 814.042 87.1262 819.806 Z" fill="#000000" fill-rule="nonzero" fill-opacity="1" /><path clip-path="url(#clip130)" d="M51.6634 627.7 L59.3023 627.7 L59.3023 601.334 L50.9921 603.001 L50.9921 598.741 L59.256 597.075 L63.9319 597.075 L63.9319 627.7 L71.5707 627.7 L71.5707 631.635 L51.6634 631.635 L51.6634 627.7 Z" fill="#000000" fill-rule="nonzero" fill-opacity="1" /><path clip-path="url(#clip130)" d="M93.8623 601.149 L82.0568 619.598 L93.8623 619.598 L93.8623 601.149 M92.6354 597.075 L98.515 597.075 L98.515 619.598 L103.446 619.598 L103.446 623.487 L98.515 623.487 L98.515 631.635 L93.8623 631.635 L93.8623 623.487 L78.2605 623.487 L78.2605 618.973 L92.6354 597.075 Z" fill="#000000" fill-rule="nonzero" fill-opacity="1" /><path clip-path="url(#clip130)" d="M51.9875 435.593 L59.6263 435.593 L59.6263 409.227 L51.3162 410.894 L51.3162 406.635 L59.58 404.968 L64.2559 404.968 L64.2559 435.593 L71.8948 435.593 L71.8948 439.528 L51.9875 439.528 L51.9875 435.593 Z" fill="#000000" fill-rule="nonzero" fill-opacity="1" /><path clip-path="url(#clip130)" d="M91.9178 420.385 Q88.7697 420.385 86.9179 422.538 Q85.0892 424.69 85.0892 428.44 Q85.0892 432.167 86.9179 434.343 Q88.7697 436.496 91.9178 436.496 Q95.066 436.496 96.8947 434.343 Q98.7465 432.167 98.7465 428.44 Q98.7465 424.69 96.8947 422.538 Q95.066 420.385 91.9178 420.385 M101.2 405.732 L101.2 409.991 Q99.4409 409.158 97.6354 408.718 Q95.853 408.278 94.0937 408.278 Q89.4641 408.278 87.0105 411.403 Q84.5799 414.528 84.2327 420.848 Q85.5984 418.834 87.6586 417.769 Q89.7188 416.681 92.1956 416.681 Q97.4039 416.681 100.413 419.852 Q103.446 423 103.446 428.44 Q103.446 433.764 100.297 436.982 Q97.1493 440.199 91.9178 440.199 Q85.9225 440.199 82.7512 435.616 Q79.5799 431.01 79.5799 422.283 Q79.5799 414.088 83.4688 409.227 Q87.3577 404.343 93.9086 404.343 Q95.6678 404.343 97.4502 404.69 Q99.2558 405.038 101.2 405.732 Z" fill="#000000" fill-rule="nonzero" fill-opacity="1" /><path clip-path="url(#clip130)" d="M52.2421 243.486 L59.881 243.486 L59.881 217.121 L51.5708 218.788 L51.5708 214.528 L59.8347 212.862 L64.5106 212.862 L64.5106 243.486 L72.1494 243.486 L72.1494 247.422 L52.2421 247.422 L52.2421 243.486 Z" fill="#000000" fill-rule="nonzero" fill-opacity="1" /><path clip-path="url(#clip130)" d="M91.5938 231.01 Q88.2604 231.01 86.3392 232.792 Q84.441 234.574 84.441 237.699 Q84.441 240.824 86.3392 242.607 Q88.2604 244.389 91.5938 244.389 Q94.9271 244.389 96.8484 242.607 Q98.7696 240.801 98.7696 237.699 Q98.7696 234.574 96.8484 232.792 Q94.9502 231.01 91.5938 231.01 M86.9179 229.019 Q83.9086 228.278 82.2188 226.218 Q80.5522 224.158 80.5522 221.195 Q80.5522 217.051 83.492 214.644 Q86.4549 212.237 91.5938 212.237 Q96.7558 212.237 99.6956 214.644 Q102.635 217.051 102.635 221.195 Q102.635 224.158 100.946 226.218 Q99.2789 228.278 96.2928 229.019 Q99.6724 229.806 101.547 232.098 Q103.446 234.389 103.446 237.699 Q103.446 242.723 100.367 245.408 Q97.3113 248.093 91.5938 248.093 Q85.8762 248.093 82.7975 245.408 Q79.742 242.723 79.742 237.699 Q79.742 234.389 81.6401 232.098 Q83.5382 229.806 86.9179 229.019 M85.2049 221.635 Q85.2049 224.32 86.8716 225.825 Q88.5614 227.329 91.5938 227.329 Q94.603 227.329 96.2928 225.825 Q98.0058 224.32 98.0058 221.635 Q98.0058 218.95 96.2928 217.445 Q94.603 215.94 91.5938 215.94 Q88.5614 215.94 86.8716 217.445 Q85.2049 218.95 85.2049 221.635 Z" fill="#000000" fill-rule="nonzero" fill-opacity="1" /><polyline clip-path="url(#clip132)" style="stroke:#009af9; stroke-linecap:round; stroke-linejoin:round; stroke-width:4; stroke-opacity:1; fill:none" points="202.086,1404.85 203.13,1409.24 204.174,1363.8 205.218,1366.65 206.262,1286.41 207.306,1290.71 208.35,1443.63 209.395,1445.72 210.439,1308.19 211.483,1311.86 212.527,1337.8 213.571,1340.68 214.615,1349.48 215.659,1352.14 216.703,1308.12 217.747,1311.12 218.791,1141.72 219.835,1146.25 220.879,1127.4 221.923,1132.21 222.967,1262.31 224.011,1265.12 225.055,1142.72 226.099,1147.18 227.143,1109.5 228.187,1113.12 229.231,1102.66 230.275,1106.73 231.319,1130.44 232.363,1134.59 233.407,1168.98 234.451,1171.43 235.495,881.056 236.539,886.118 237.583,895.041 238.627,898.862 239.671,992.724 240.715,995.514 241.759,940.223 242.803,944.438 243.847,762.746 244.891,768.814 245.935,844.132 246.979,849.031 248.023,912.682 249.067,916.41 250.111,794.756 251.155,798.195 252.199,943.153 253.243,945.496 254.287,842.268 255.331,845.496 256.375,729.318 257.419,733.499 258.463,731.708 259.507,736.188 260.551,710.148 261.595,713.953 262.639,770.117 263.683,772.293 264.727,709.603 265.771,712.463 266.815,546.306 267.859,551.217 268.903,631.796 269.947,634.892 270.991,627.368 272.035,630.723 273.079,749.688 274.123,753.435 275.167,675.6 276.211,677.479 277.255,709.556 278.299,711.894 279.343,712.848 280.387,716.111 281.431,475.721 282.476,483.928 283.52,795.367 284.564,797.823 285.608,648.291 286.652,650.187 287.696,521.95 288.74,526.9 289.784,642.933 290.828,644.83 291.872,583.904 292.916,586.639 293.96,607.686 295.004,610.471 296.048,487.561 297.092,489.609 298.136,595.127 299.18,599.001 300.224,508.371 301.268,511.041 302.312,513.758 303.356,516.029 304.4,448.338 305.444,451.71 306.488,472.146 307.532,475.554 308.576,588.538 309.62,590.917 310.664,502.896 311.708,506.924 312.752,540.852 313.796,542.799 314.84,473.14 315.884,477.135 316.928,376.74 317.972,379.082 319.016,364.184 320.06,367.724 321.104,428.862 322.148,430.775 323.192,387.657 324.236,390.486 325.28,367.386 326.324,373.852 327.368,326.407 328.412,328.072 329.456,450.458 330.5,454.031 331.544,314.24 332.588,315.74 333.632,482.148 334.676,488.391 335.72,357.342 336.764,359.668 337.808,435.753 338.852,437.58 339.896,310.263 340.94,316.355 341.984,507.953 343.028,511.116 344.072,278.036 345.116,282.972 346.16,328.968 347.204,332.428 348.248,558.268 349.292,560.603 350.336,377.574 351.38,380.557 352.424,407.01 353.468,409.74 354.512,344.642 355.557,349.636 356.601,307.47 357.645,308.868 358.689,254.765 359.733,258.106 360.777,496.672 361.821,499.249 362.865,511.676 363.909,513.635 364.953,321.14 365.997,322.569 367.041,178.714 368.085,180.13 369.129,308.889 370.173,311.641 371.217,347.101 372.261,348.805 373.305,535.794 374.349,537.313 375.393,343.672 376.437,346.212 377.481,290.315 378.525,291.825 379.569,410.511 380.613,411.729 381.657,357.588 382.701,360.564 383.745,404.97 384.789,407.333 385.833,243.572 386.877,245.965 387.921,204.128 388.965,206.859 390.009,316.135 391.053,319.916 392.097,349.28 393.141,352.274 394.185,430.095 395.229,432.367 396.273,404.163 397.317,406.589 398.361,348.945 399.405,353.967 400.449,400.761 401.493,402.881 402.537,325.817 403.581,328.269 404.625,307.446 405.669,309.865 406.713,282.664 407.757,284.315 408.801,326.644 409.845,328.085 410.889,377.759 411.933,378.683 412.977,374.121 414.021,378.259 415.065,307.229 416.109,309.009 417.153,316.22 418.197,319.211 419.241,455.205 420.285,457.298 421.329,345.882 422.373,347.892 423.417,336.682 424.461,338.254 425.505,388.081 426.549,391.9 427.594,286.378 428.638,287.435 429.682,382.123 430.726,386.126 431.77,368.958 432.814,370.206 433.858,286.258 434.902,287.655 435.946,318.948 436.99,320.801 438.034,378.316 439.078,380.013 440.122,263.129 441.166,267.646 442.21,502.153 443.254,503.491 444.298,375.667 445.342,378.635 446.386,403.697 447.43,404.791 448.474,405.43 449.518,405.99 450.562,374.416 451.606,377.71 452.65,287.065 453.694,288.95 454.738,468.93 455.782,470.17 456.826,283.647 457.87,285.61 458.914,184.462 459.958,187.632 461.002,352.832 462.046,354.634 463.09,286.462 464.134,288.713 465.178,264.661 466.222,266.651 467.266,384.332 468.31,389.329 469.354,287.36 470.398,290.973 471.442,391.543 472.486,394.897 473.53,366.1 474.574,368.527 475.618,349.602 476.662,351.228 477.706,371.672 478.75,375.364 479.794,376.102 480.838,378.429 481.882,232.352 482.926,238.417 483.97,324.67 485.014,327.767 486.058,309.212 487.102,312.799 488.146,282.859 489.19,285.338 490.234,344.787 491.278,346.691 492.322,291.715 493.366,292.563 494.41,475.259 495.454,478.28 496.498,274.531 497.542,275.53 498.586,311.522 499.63,312.377 500.675,325.075 501.719,326.557 502.763,289.055 503.807,292.122 504.851,274.525 505.895,275.438 506.939,281.706 507.983,285.1 509.027,260.733 510.071,264.367 511.115,260.231 512.159,263.468 513.203,185.73 514.247,186.984 515.291,217.07 516.335,220.823 517.379,204.818 518.423,206.764 519.467,239.617 520.511,241.077 521.555,316.498 522.599,318.159 523.643,300.672 524.687,302.371 525.731,272.602 526.775,275.334 527.819,328.022 528.863,329.895 529.907,217.299 530.951,223.62 531.995,157.663 533.039,160.699 534.083,388.906 535.127,390.529 536.171,381.515 537.215,383.897 538.259,428.317 539.303,432.483 540.347,302.014 541.391,305.636 542.435,261.625 543.479,264.874 544.523,241.36 545.567,243.722 546.611,335.141 547.655,340.715 548.699,340.338 549.743,341.62 550.787,454.821 551.831,455.995 552.875,299.959 553.919,301.759 554.963,238.177 556.007,241.965 557.051,347.882 558.095,354.064 559.139,281.085 560.183,285.313 561.227,146.632 562.271,148.258 563.315,363.315 564.359,365.469 565.403,369.687 566.447,373.83 567.491,409.7 568.535,415.082 569.579,245.83 570.623,247.427 571.667,329.724 572.711,332.398 573.756,218.107 574.8,224.071 575.844,286.843 576.888,289.209 577.932,341.106 578.976,342.391 580.02,341.384 581.064,345.615 582.108,359.959 583.152,363.108 584.196,353.695 585.24,355.314 586.284,307.019 587.328,310.613 588.372,273.836 589.416,274.752 590.46,315.548 591.504,318.944 592.548,346.124 593.592,348.607 594.636,365.486 595.68,367.341 596.724,402.629 597.768,405.961 598.812,284.51 599.856,288.77 600.9,322.395 601.944,323.443 602.988,354.832 604.032,357.787 605.076,293.955 606.12,296.211 607.164,251.605 608.208,253.485 609.252,355.461 610.296,356.962 611.34,372.469 612.384,373.166 613.428,89.3134 614.472,91.9954 615.516,316.429 616.56,318.315 617.604,319.831 618.648,320.484 619.692,319.015 620.736,322.03 621.78,346.205 622.824,352.645 623.868,326.919 624.912,330.46 625.956,281.789 627,283.252 628.044,299.143 629.088,301.331 630.132,231.859 631.176,232.409 632.22,331.521 633.264,334.484 634.308,290.056 635.352,291.349 636.396,216.577 637.44,219.209 638.484,405.949 639.528,407.539 640.572,197.795 641.616,200.298 642.66,405.382 643.704,407.517 644.748,286.754 645.792,287.77 646.837,230.459 647.881,233.06 648.925,193.223 649.969,195.88 651.013,238.173 652.057,239.482 653.101,409.767 654.145,410.846 655.189,258.518 656.233,261.642 657.277,325.228 658.321,326.322 659.365,236.586 660.409,239.019 661.453,307.821 662.497,309.381 663.541,223.968 664.585,225.171 665.629,492.363 666.673,493.701 667.717,457.377 668.761,462.125 669.805,262.243 670.849,264.348 671.893,360.26 672.937,362.746 673.981,207.133 675.025,209.959 676.069,316.325 677.113,318.479 678.157,307.443 679.201,311.072 680.245,129.787 681.289,130.85 682.333,331.171 683.377,332.538 684.421,283.705 685.465,286.077 686.509,377.984 687.553,378.953 688.597,255.828 689.641,260.444 690.685,381.208 691.729,382.173 692.773,181.637 693.817,183.215 694.861,307.628 695.905,310.378 696.949,374.747 697.993,376.954 699.037,357.2 700.081,358.718 701.125,247.107 702.169,248.849 703.213,180.697 704.257,186.553 705.301,348.31 706.345,350.182 707.389,289.423 708.433,291.178 709.477,328.994 710.521,330.415 711.565,332.383 712.609,334.165 713.653,233.409 714.697,234.812 715.741,329.936 716.785,333.502 717.829,272.312 718.873,275.919 719.918,406.011 720.962,406.852 722.006,247.223 723.05,249.382 724.094,255.999 725.138,257.389 726.182,285.464 727.226,287.909 728.27,267.12 729.314,268.092 730.358,182.947 731.402,184.946 732.446,334.339 733.49,336.924 734.534,216.247 735.578,218.421 736.622,286.321 737.666,287.861 738.71,306.847 739.754,308.059 740.798,258.011 741.842,261.953 742.886,359.478 743.93,361.864 744.974,467.995 746.018,468.542 747.062,294.99 748.106,296.028 749.15,215.881 750.194,217.061 751.238,411.72 752.282,412.577 753.326,317.884 754.37,318.92 755.414,282.419 756.458,284.925 757.502,324.059 758.546,327.029 759.59,409.645 760.634,411.726 761.678,226.375 762.722,229.176 763.766,257.265 764.81,259.644 765.854,314.765 766.898,316.63 767.942,318.678 768.986,320.368 770.03,219.717 771.074,220.77 772.118,371.793 773.162,374.221 774.206,332.874 775.25,334.16 776.294,313.78 777.338,317.08 778.382,431.835 779.426,434.364 780.47,278.095 781.514,279.712 782.558,375.457 783.602,379.785 784.646,242.88 785.69,246.673 786.734,294.279 787.778,295.661 788.822,406.85 789.866,408.554 790.91,352.321 791.954,359.374 792.999,156.665 794.043,158.605 795.087,318.808 796.131,321.365 797.175,262.247 798.219,264.12 799.263,134.404 800.307,137.19 801.351,249.882 802.395,251.957 803.439,206.954 804.483,208.663 805.527,284.217 806.571,287.486 807.615,283.497 808.659,284.711 809.703,281.517 810.747,284.331 811.791,288.313 812.835,289.57 813.879,337.83 814.923,340.128 815.967,288.759 817.011,290.557 818.055,296.502 819.099,297.251 820.143,344.158 821.187,345.636 822.231,376.206 823.275,378.537 824.319,284.802 825.363,286.558 826.407,348.109 827.451,349.999 828.495,193.242 829.539,194.981 830.583,184.27 831.627,185.353 832.671,136.455 833.715,139.277 834.759,354.044 835.803,354.744 836.847,386.624 837.891,387.782 838.935,393.603 839.979,397.057 841.023,221.578 842.067,225.295 843.111,366.872 844.155,368.096 845.199,272.478 846.243,273.968 847.287,344.909 848.331,346.451 849.375,277.966 850.419,280.379 851.463,342.272 852.507,344.109 853.551,222.206 854.595,223.759 855.639,255.045 856.683,257.484 857.727,331.992 858.771,335.145 859.815,178.319 860.859,182.567 861.903,288.222 862.947,289.024 863.991,354.059 865.036,357.25 866.08,262.703 867.124,266.182 868.168,239.481 869.212,242.732 870.256,302.138 871.3,310.487 872.344,297.608 873.388,299.24 874.432,245.798 875.476,250.85 876.52,212.516 877.564,213.917 878.608,299.816 879.652,303.114 880.696,360.546 881.74,361.958 882.784,331.062 883.828,332.341 884.872,380.815 885.916,385.489 886.96,279.165 888.004,280.43 889.048,270.344 890.092,271.863 891.136,219.631 892.18,221.65 893.224,398.105 894.268,399.777 895.312,308.782 896.356,310.156 897.4,183.785 898.444,186.554 899.488,398.173 900.532,399.009 901.576,179.966 902.62,182.63 903.664,263.473 904.708,264.503 905.752,403.776 906.796,405.051 907.84,288.349 908.884,292.378 909.928,324.308 910.972,326.022 912.016,297.32 913.06,303.837 914.104,272.284 915.148,276.052 916.192,335.03 917.236,336.259 918.28,310.102 919.324,312.787 920.368,294.756 921.412,297.337 922.456,155.504 923.5,158.118 924.544,324.718 925.588,327.85 926.632,229.348 927.676,231.35 928.72,332.26 929.764,337.657 930.808,399.547 931.852,403.394 932.896,422.848 933.94,424.836 934.984,331.098 936.028,332.313 937.072,276.079 938.117,278.804 939.161,339.895 940.205,343.127 941.249,291.629 942.293,293.434 943.337,175.056 944.381,176.319 945.425,291.687 946.469,293.562 947.513,352.699 948.557,354.595 949.601,525.121 950.645,529.402 951.689,367.792 952.733,369.596 953.777,277.342 954.821,279.28 955.865,274.828 956.909,276.749 957.953,306.093 958.997,308.083 960.041,354.906 961.085,356.183 962.129,260.436 963.173,263.03 964.217,422.555 965.261,423.88 966.305,271.095 967.349,273.434 968.393,379.725 969.437,381.669 970.481,440.598 971.525,443.133 972.569,360.597 973.613,363.096 974.657,338.287 975.701,339.745 976.745,452.912 977.789,453.915 978.833,276.588 979.877,279.345 980.921,291.674 981.965,293.575 983.009,348.909 984.053,353.329 985.097,267.497 986.141,270.166 987.185,404.509 988.229,405.474 989.273,250.351 990.317,251.735 991.361,585.021 992.405,586.988 993.449,237.737 994.493,240.077 995.537,337.663 996.581,339.095 997.625,190.756 998.669,193.587 999.713,262.458 1000.76,265.55 1001.8,265.541 1002.85,268.658 1003.89,210.961 1004.93,212.523 1005.98,341.216 1007.02,342.849 1008.07,407.379 1009.11,410.545 1010.15,171.394 1011.2,177.282 1012.24,291.304 1013.29,294.785 1014.33,404.028 1015.37,405.621 1016.42,420.196 1017.46,421.336 1018.51,307.833 1019.55,310.267 1020.59,315.292 1021.64,316.648 1022.68,452.588 1023.73,454.93 1024.77,327.043 1025.81,330.478 1026.86,376.453 1027.9,378.673 1028.95,251.558 1029.99,255.496 1031.03,281.799 1032.08,283.485 1033.12,316.198 1034.17,318.546 1035.21,302.311 1036.25,303.863 1037.3,342.859 1038.34,344.822 1039.39,201.417 1040.43,202.559 1041.47,355.746 1042.52,360.923 1043.56,243.854 1044.61,245.606 1045.65,340.569 1046.69,343.887 1047.74,332.865 1048.78,335.751 1049.83,494.781 1050.87,495.626 1051.91,348.531 1052.96,350.938 1054,249.497 1055.05,252.954 1056.09,366.654 1057.13,369.62 1058.18,395.377 1059.22,398.48 1060.27,467.604 1061.31,471.203 1062.35,342.195 1063.4,345.148 1064.44,404.434 1065.49,407.21 1066.53,254.818 1067.57,257.79 1068.62,422.951 1069.66,425.163 1070.71,275.137 1071.75,276.476 1072.79,402.95 1073.84,403.779 1074.88,285.35 1075.93,286.829 1076.97,371.768 1078.01,373.845 1079.06,335.475 1080.1,336.056 1081.15,327.352 1082.19,329.485 1083.23,287.78 1084.28,288.956 1085.32,274.447 1086.37,278.219 1087.41,268.773 1088.45,270.359 1089.5,145.461 1090.54,152.394 1091.59,344.841 1092.63,346.619 1093.67,278.243 1094.72,279.793 1095.76,281.653 1096.81,284.042 1097.85,344.006 1098.89,345.66 1099.94,290.682 1100.98,292.476 1102.03,407.267 1103.07,410.047 1104.11,324.5 1105.16,326.025 1106.2,331.617 1107.25,336.219 1108.29,312.965 1109.33,313.997 1110.38,185.622 1111.42,188.156 1112.47,279.469 1113.51,280.998 1114.55,169.524 1115.6,171.013 1116.64,358.399 1117.69,361.295 1118.73,304.916 1119.77,306.752 1120.82,206.572 1121.86,211.415 1122.91,186.501 1123.95,187.714 1125,316.671 1126.04,319.258 1127.08,290.785 1128.13,292.805 1129.17,302.319 1130.22,308.281 1131.26,355.272 1132.3,357.244 1133.35,337.76 1134.39,342.713 1135.44,426.057 1136.48,427.439 1137.52,252.93 1138.57,255.058 1139.61,275.201 1140.66,277.422 1141.7,241.233 1142.74,244.419 1143.79,197.911 1144.83,202.754 1145.88,304.757 1146.92,306.464 1147.96,308.877 1149.01,310.492 1150.05,296.032 1151.1,297.976 1152.14,199.242 1153.18,202.769 1154.23,205.378 1155.27,205.981 1156.32,253.2 1157.36,255.006 1158.4,220.708 1159.45,222.837 1160.49,285.368 1161.54,286.953 1162.58,275.705 1163.62,277.729 1164.67,291.244 1165.71,293.517 1166.76,321.035 1167.8,323.395 1168.84,268.639 1169.89,270.341 1170.93,205.955 1171.98,209.606 1173.02,256.818 1174.06,260.673 1175.11,315.067 1176.15,316.8 1177.2,263.898 1178.24,265.578 1179.28,260.484 1180.33,262.645 1181.37,345.749 1182.42,346.289 1183.46,242.93 1184.5,244.962 1185.55,253.128 1186.59,254.113 1187.64,327.591 1188.68,330.873 1189.72,356.789 1190.77,357.704 1191.81,227.909 1192.86,229.693 1193.9,339.375 1194.94,340.815 1195.99,319.241 1197.03,319.993 1198.08,255.832 1199.12,260.015 1200.16,186.212 1201.21,187.371 1202.25,409.527 1203.3,414.086 1204.34,311.631 1205.38,314.791 1206.43,249.505 1207.47,251.927 1208.52,235.374 1209.56,237.15 1210.6,271.249 1211.65,271.581 1212.69,167.856 1213.74,169.934 1214.78,254.071 1215.82,257.295 1216.87,203.938 1217.91,204.804 1218.96,362.937 1220,364.854 1221.04,450.687 1222.09,452.921 1223.13,224.77 1224.18,226.128 1225.22,281.099 1226.26,283.163 1227.31,446.209 1228.35,447.373 1229.4,259.293 1230.44,261.293 1231.48,307.901 1232.53,309.021 1233.57,204.175 1234.62,205.448 1235.66,232.528 1236.7,235.158 1237.75,308.638 1238.79,310.688 1239.84,185.709 1240.88,187.876 1241.92,257.093 1242.97,259.619 1244.01,405.313 1245.06,407.606 1246.1,329.4 1247.14,330.521 1248.19,350.863 1249.23,354.626 1250.28,256.975 1251.32,258.639 1252.36,143.13 1253.41,145.583 1254.45,257.32 1255.5,258.639 1256.54,266.92 1257.58,269.459 1258.63,394.591 1259.67,397.037 1260.72,351.561 1261.76,353.247 1262.8,300.533 1263.85,303.132 1264.89,281.032 1265.94,284.709 1266.98,296.205 1268.03,298.074 1269.07,427.138 1270.11,429.383 1271.16,292.529 1272.2,294.341 1273.25,287.147 1274.29,289.885 1275.33,285.518 1276.38,286.596 1277.42,383.98 1278.47,387.041 1279.51,218.658 1280.55,221.384 1281.6,192.129 1282.64,194.691 1283.69,229.186 1284.73,233.324 1285.77,336.547 1286.82,338.743 1287.86,259.871 1288.91,262.371 1289.95,410.343 1290.99,412.372 1292.04,300.083 1293.08,305.617 1294.13,282.68 1295.17,283.919 1296.21,248.519 1297.26,250.031 1298.3,290.664 1299.35,293.328 1300.39,263.475 1301.43,267.506 1302.48,283.264 1303.52,286.694 1304.57,202.947 1305.61,204.817 1306.65,381.927 1307.7,385.458 1308.74,277.557 1309.79,278.139 1310.83,189.182 1311.87,191.287 1312.92,222.515 1313.96,224.321 1315.01,244.242 1316.05,245.447 1317.09,293.202 1318.14,295.203 1319.18,241.192 1320.23,243.112 1321.27,242.325 1322.31,245.2 1323.36,302.807 1324.4,307.09 1325.45,351.59 1326.49,352.405 1327.53,276.386 1328.58,279.848 1329.62,267.07 1330.67,269.269 1331.71,199.601 1332.75,202.025 1333.8,206.255 1334.84,208.225 1335.89,237.224 1336.93,239.184 1337.97,348.903 1339.02,351.1 1340.06,186.128 1341.11,188.41 1342.15,276.404 1343.19,278.238 1344.24,327.254 1345.28,333.131 1346.33,232.255 1347.37,233.271 1348.41,281.294 1349.46,283.996 1350.5,456.479 1351.55,458.107 1352.59,227.439 1353.63,231.033 1354.68,262.946 1355.72,265.007 1356.77,378.961 1357.81,380.796 1358.85,236.224 1359.9,238.885 1360.94,505.182 1361.99,506.417 1363.03,264.967 1364.07,266.97 1365.12,220.182 1366.16,223.341 1367.21,313.053 1368.25,314.01 1369.29,342.91 1370.34,345.595 1371.38,228.267 1372.43,229.893 1373.47,320.025 1374.51,326.345 1375.56,207.01 1376.6,208.033 1377.65,249.505 1378.69,251.048 1379.73,237.188 1380.78,238.752 1381.82,272.252 1382.87,274.084 1383.91,265.765 1384.95,268.677 1386,351.841 1387.04,352.908 1388.09,234.044 1389.13,236.914 1390.17,432.957 1391.22,434.127 1392.26,273.949 1393.31,277.389 1394.35,316.142 1395.39,317.988 1396.44,149.224 1397.48,150.377 1398.53,301.606 1399.57,303.243 1400.61,241.14 1401.66,242.617 1402.7,262.239 1403.75,264.644 1404.79,212.122 1405.83,215.421 1406.88,448.839 1407.92,452.156 1408.97,242.414 1410.01,246.381 1411.05,163.444 1412.1,165.331 1413.14,344.462 1414.19,346.797 1415.23,282.172 1416.28,283.833 1417.32,264.211 1418.36,266.555 1419.41,247.832 1420.45,248.179 1421.5,249.76 1422.54,251.396 1423.58,303.403 1424.63,307.89 1425.67,340.488 1426.72,342.266 1427.76,204.678 1428.8,207.413 1429.85,273.234 1430.89,274.57 1431.94,300.578 1432.98,301.31 1434.02,240.655 1435.07,243.714 1436.11,316.952 1437.16,319.024 1438.2,328.861 1439.24,332.819 1440.29,243.315 1441.33,245.5 1442.38,169.511 1443.42,170.91 1444.46,226.511 1445.51,227.4 1446.55,315.443 1447.6,318.824 1448.64,252.409 1449.68,253 1450.73,277.936 1451.77,281.316 1452.82,267.866 1453.86,271.153 1454.9,398.388 1455.95,400.306 1456.99,298.988 1458.04,300.048 1459.08,292.364 1460.12,294.259 1461.17,277.125 1462.21,279.42 1463.26,207.822 1464.3,210.059 1465.34,414.33 1466.39,415.599 1467.43,233.423 1468.48,234.471 1469.52,339.932 1470.56,341.364 1471.61,340.816 1472.65,341.714 1473.7,223.105 1474.74,225.7 1475.78,359.142 1476.83,361.261 1477.87,262.159 1478.92,265.315 1479.96,382.878 1481,386.843 1482.05,259.532 1483.09,261.047 1484.14,187.387 1485.18,187.914 1486.22,238.935 1487.27,241.127 1488.31,327.18 1489.36,328.959 1490.4,265.079 1491.44,269.132 1492.49,425.355 1493.53,428.903 1494.58,241.29 1495.62,245.195 1496.66,352.495 1497.71,354.067 1498.75,327.555 1499.8,330.442 1500.84,250.337 1501.88,255.951 1502.93,219.193 1503.97,220.105 1505.02,260.374 1506.06,262.015 1507.1,222.029 1508.15,228.052 1509.19,186.262 1510.24,188.574 1511.28,278.164 1512.32,279.986 1513.37,357.168 1514.41,359.35 1515.46,369.446 1516.5,370.414 1517.54,386.017 1518.59,388.434 1519.63,350.802 1520.68,351.503 1521.72,225.078 1522.76,226.183 1523.81,349.573 1524.85,352.759 1525.9,361.288 1526.94,364.933 1527.98,309.026 1529.03,312.141 1530.07,340.616 1531.12,343.193 1532.16,235.203 1533.2,238.645 1534.25,368.872 1535.29,370.045 1536.34,291.092 1537.38,292.319 1538.42,320.794 1539.47,323.571 1540.51,326.828 1541.56,329 1542.6,238.447 1543.64,239.996 1544.69,307.305 1545.73,310.62 1546.78,277.785 1547.82,280.75 1548.86,348.984 1549.91,349.935 1550.95,280.583 1552,283.617 1553.04,424.287 1554.08,425.974 1555.13,347.766 1556.17,352.068 1557.22,218.396 1558.26,221.894 1559.31,198.19 1560.35,200.877 1561.39,262.968 1562.44,266.112 1563.48,319.16 1564.53,320.56 1565.57,259.736 1566.61,262.589 1567.66,263.139 1568.7,265.504 1569.75,466.859 1570.79,468.685 1571.83,212.166 1572.88,213.949 1573.92,422.68 1574.97,424.623 1576.01,356.467 1577.05,358.522 1578.1,272.467 1579.14,275.16 1580.19,233.439 1581.23,238.874 1582.27,303.73 1583.32,306.279 1584.36,288.616 1585.41,292.758 1586.45,293.562 1587.49,296.74 1588.54,367.904 1589.58,370.074 1590.63,433.3 1591.67,434.082 1592.71,290.816 1593.76,293.179 1594.8,308.317 1595.85,316.792 1596.89,356.451 1597.93,357.118 1598.98,201.787 1600.02,202.569 1601.07,393.422 1602.11,397.209 1603.15,290.849 1604.2,292.309 1605.24,332.418 1606.29,334.067 1607.33,435.785 1608.37,436.971 1609.42,402.893 1610.46,405.018 1611.51,262.533 1612.55,266.811 1613.59,353.644 1614.64,355.77 1615.68,241.438 1616.73,244.974 1617.77,278.403 1618.81,280.088 1619.86,376.628 1620.9,378.061 1621.95,327.683 1622.99,328.664 1624.03,350.762 1625.08,352.767 1626.12,264.31 1627.17,266.904 1628.21,286.181 1629.25,288.541 1630.3,161.092 1631.34,163.639 1632.39,365.899 1633.43,366.891 1634.47,282.652 1635.52,284.772 1636.56,434.664 1637.61,436.77 1638.65,223.888 1639.69,225.167 1640.74,392.519 1641.78,393.319 1642.83,403.744 1643.87,408.535 1644.91,362.933 1645.96,364.326 1647,317.314 1648.05,320.626 1649.09,267.761 1650.13,269.733 1651.18,307.681 1652.22,308.367 1653.27,294.645 1654.31,297.592 1655.35,275.01 1656.4,278.624 1657.44,308.776 1658.49,312.337 1659.53,338.049 1660.57,340.504 1661.62,248.237 1662.66,250.356 1663.71,233.049 1664.75,235.194 1665.79,360.939 1666.84,365.847 1667.88,300.777 1668.93,306.659 1669.97,171.516 1671.01,173.133 1672.06,262.415 1673.1,265.332 1674.15,188.675 1675.19,190.715 1676.23,221.457 1677.28,225.884 1678.32,219.622 1679.37,220.964 1680.41,268.79 1681.45,270.65 1682.5,318.403 1683.54,321.199 1684.59,418.553 1685.63,420.301 1686.67,308.856 1687.72,312.586 1688.76,316.901 1689.81,318.387 1690.85,277.505 1691.89,279.088 1692.94,236.353 1693.98,237.97 1695.03,363.206 1696.07,365.318 1697.11,429.274 1698.16,431.705 1699.2,282.434 1700.25,284.668 1701.29,235.124 1702.33,237.456 1703.38,175.333 1704.42,175.83 1705.47,268.994 1706.51,272.199 1707.56,161.27 1708.6,162.552 1709.64,398.286 1710.69,399.798 1711.73,338.619 1712.78,341.141 1713.82,276.374 1714.86,281.372 1715.91,238.185 1716.95,239.361 1718,388.105 1719.04,390.982 1720.08,368.322 1721.13,372.196 1722.17,376.248 1723.22,377.856 1724.26,219.165 1725.3,223.323 1726.35,227.802 1727.39,230.985 1728.44,445.986 1729.48,447.276 1730.52,339.115 1731.57,342.505 1732.61,365.982 1733.66,368.688 1734.7,204.474 1735.74,205.657 1736.79,350.957 1737.83,353.734 1738.88,362.021 1739.92,363.841 1740.96,183.308 1742.01,184.139 1743.05,425.055 1744.1,425.981 1745.14,313.191 1746.18,315.024 1747.23,308.448 1748.27,309.964 1749.32,243.396 1750.36,244.491 1751.4,271.234 1752.45,274.402 1753.49,170.547 1754.54,172.807 1755.58,274.733 1756.62,277.785 1757.67,380.462 1758.71,382.27 1759.76,347.496 1760.8,350.948 1761.84,208.223 1762.89,211.566 1763.93,346.048 1764.98,347.049 1766.02,328.454 1767.06,330.839 1768.11,283.759 1769.15,286.556 1770.2,394.376 1771.24,395.109 1772.28,288.348 1773.33,290.515 1774.37,403.448 1775.42,405.38 1776.46,363.144 1777.5,364.631 1778.55,373.048 1779.59,374.25 1780.64,290.524 1781.68,294.345 1782.72,394.273 1783.77,395.527 1784.81,323.48 1785.86,326.836 1786.9,309.603 1787.94,311.373 1788.99,287.947 1790.03,288.967 1791.08,203.524 1792.12,206.676 1793.16,226.786 1794.21,229.815 1795.25,395.393 1796.3,397.589 1797.34,328.532 1798.38,329.628 1799.43,296.529 1800.47,296.957 1801.52,356.538 1802.56,360.092 1803.6,289.064 1804.65,292.27 1805.69,308.016 1806.74,311.831 1807.78,246.851 1808.82,249.268 1809.87,277.898 1810.91,278.864 1811.96,433.685 1813,437.551 1814.04,318.233 1815.09,321.26 1816.13,277.026 1817.18,279.134 1818.22,368.39 1819.26,368.866 1820.31,411.009 1821.35,415.256 1822.4,239.728 1823.44,241.162 1824.48,276.884 1825.53,278.21 1826.57,371.653 1827.62,372.479 1828.66,358.379 1829.7,360.114 1830.75,243.796 1831.79,246.199 1832.84,238.848 1833.88,242.03 1834.92,319.319 1835.97,322.923 1837.01,212.421 1838.06,213.137 1839.1,467.215 1840.14,468.371 1841.19,238.532 1842.23,240.524 1843.28,287.49 1844.32,290.72 1845.36,377.207 1846.41,378.236 1847.45,207.121 1848.5,208.074 1849.54,271.989 1850.59,274.691 1851.63,291.933 1852.67,294.117 1853.72,217.552 1854.76,221.971 1855.81,234.404 1856.85,235.796 1857.89,184.05 1858.94,186.226 1859.98,238.383 1861.03,241.319 1862.07,408.659 1863.11,411.769 1864.16,416.153 1865.2,417.612 1866.25,299.728 1867.29,301.747 1868.33,297.181 1869.38,299.555 1870.42,201.071 1871.47,203.512 1872.51,431.758 1873.55,435.6 1874.6,226.149 1875.64,231.219 1876.69,277.589 1877.73,279.776 1878.77,392.597 1879.82,393.766 1880.86,353.774 1881.91,356.063 1882.95,346.212 1883.99,347.152 1885.04,296.037 1886.08,297.539 1887.13,382.69 1888.17,384.42 1889.21,306.757 1890.26,310.16 1891.3,364.207 1892.35,366.025 1893.39,266.738 1894.43,268.974 1895.48,307.816 1896.52,309.028 1897.57,274.076 1898.61,275.539 1899.65,327.551 1900.7,328.878 1901.74,352.546 1902.79,354.767 1903.83,380.15 1904.87,382.328 1905.92,342.998 1906.96,345.001 1908.01,271.042 1909.05,272.342 1910.09,311.663 1911.14,312.77 1912.18,209.168 1913.23,211.447 1914.27,215.99 1915.31,218.031 1916.36,400.335 1917.4,401.241 1918.45,308.801 1919.49,311.248 1920.53,280.514 1921.58,282.503 1922.62,298.038 1923.67,299.438 1924.71,368.188 1925.75,371.155 1926.8,247.422 1927.84,249.406 1928.89,253.377 1929.93,255.429 1930.97,226.315 1932.02,227.49 1933.06,291.124 1934.11,293.732 1935.15,244.156 1936.19,245.748 1937.24,245.851 1938.28,248.118 1939.33,307.325 1940.37,309.21 1941.41,334.727 1942.46,335.862 1943.5,271.921 1944.55,275.317 1945.59,267.298 1946.63,269.52 1947.68,222.732 1948.72,224.889 1949.77,363.912 1950.81,366.321 1951.85,296.867 1952.9,299.418 1953.94,190.505 1954.99,192.653 1956.03,269.07 1957.07,270.56 1958.12,305.303 1959.16,307.218 1960.21,396.287 1961.25,397.026 1962.29,278.226 1963.34,281.108 1964.38,231.871 1965.43,233.834 1966.47,189.935 1967.51,193.265 1968.56,206.052 1969.6,207.452 1970.65,308.001 1971.69,311.063 1972.73,206.708 1973.78,209.18 1974.82,382.243 1975.87,383.596 1976.91,171.836 1977.95,173.715 1979,359.15 1980.04,360.487 1981.09,303.355 1982.13,306.882 1983.17,412.635 1984.22,413.916 1985.26,307.739 1986.31,309.916 1987.35,226.18 1988.39,228.65 1989.44,311.405 1990.48,313.611 1991.53,361.208 1992.57,364.21 1993.61,321.944 1994.66,325.802 1995.7,195.746 1996.75,197.729 1997.79,251.727 1998.84,254.37 1999.88,211.919 2000.92,212.835 2001.97,413.202 2003.01,415.618 2004.06,409.184 2005.1,411.934 2006.14,349.857 2007.19,353.112 2008.23,299.898 2009.28,300.901 2010.32,244.382 2011.36,246.624 2012.41,342.726 2013.45,343.542 2014.5,264.591 2015.54,267.504 2016.58,230.826 2017.63,236.101 2018.67,213.595 2019.72,217.306 2020.76,298.101 2021.8,299.081 2022.85,211.201 2023.89,214.316 2024.94,237.111 2025.98,240.167 2027.02,313.117 2028.07,315.907 2029.11,296.242 2030.16,298.652 2031.2,266.555 2032.24,271.087 2033.29,280.97 2034.33,283.294 2035.38,294.772 2036.42,298.306 2037.46,352.588 2038.51,354.091 2039.55,318.687 2040.6,321.186 2041.64,369.023 2042.68,370.613 2043.73,307.084 2044.77,310.126 2045.82,420.501 2046.86,424.501 2047.9,237.813 2048.95,240.171 2049.99,405.259 2051.04,406.173 2052.08,246.908 2053.12,250.304 2054.17,272.172 2055.21,273.334 2056.26,398.18 2057.3,399.911 2058.34,290.618 2059.39,292.905 2060.43,347.168 2061.48,349.009 2062.52,230.221 2063.56,234.026 2064.61,222.692 2065.65,223.821 2066.7,389.535 2067.74,390.825 2068.78,310.261 2069.83,313.4 2070.87,151.768 2071.92,153.871 2072.96,401.738 2074,402.93 2075.05,381.344 2076.09,381.669 2077.14,331.127 2078.18,331.994 2079.22,87.9763 2080.27,92.427 2081.31,248.399 2082.36,249.611 2083.4,342.782 2084.44,346.051 2085.49,261.821 2086.53,264.768 2087.58,325.772 2088.62,327.866 2089.66,335.543 2090.71,336.936 2091.75,372.828 2092.8,376.039 2093.84,232.405 2094.88,234.247 2095.93,203.944 2096.97,206.368 2098.02,194.394 2099.06,197.15 2100.1,281.896 2101.15,286.434 2102.19,310.582 2103.24,316.496 2104.28,286.279 2105.32,287.902 2106.37,394.462 2107.41,395.513 2108.46,399.429 2109.5,401.248 2110.54,375.31 2111.59,376.363 2112.63,240.004 2113.68,241.471 2114.72,213.558 2115.76,215.126 2116.81,378.402 2117.85,380.738 2118.9,390.994 2119.94,396.746 2120.98,232.272 2122.03,235.022 2123.07,369.6 2124.12,371.223 2125.16,324.211 2126.2,326.422 2127.25,274.891 2128.29,277.071 2129.34,320.414 2130.38,323.668 2131.42,266.335 2132.47,269.328 2133.51,326.768 2134.56,329.626 2135.6,152.851 2136.64,155.23 2137.69,350.7 2138.73,355.333 2139.78,328.283 2140.82,330.201 2141.87,367.735 2142.91,370.58 2143.95,224.283 2145,225.79 2146.04,244.3 2147.09,246.715 2148.13,253.29 2149.17,255.543 2150.22,326.236 2151.26,328.071 2152.31,331.718 2153.35,332.775 2154.39,335.171 2155.44,336.066 2156.48,156.648 2157.53,158.439 2158.57,316.891 2159.61,320.178 2160.66,477.369 2161.7,479.95 2162.75,386.72 2163.79,388.494 2164.83,332.518 2165.88,334.337 2166.92,405.022 2167.97,407.042 2169.01,257.292 2170.05,259.1 2171.1,197.946 2172.14,200.242 2173.19,275.306 2174.23,278.051 2175.27,266.595 2176.32,268.391 2177.36,260.306 2178.41,261.854 2179.45,283.572 2180.49,284.196 2181.54,344.857 2182.58,346.572 2183.63,245.158 2184.67,248.271 2185.71,326.833 2186.76,328.674 2187.8,250.763 2188.85,251.926 2189.89,235.284 2190.93,236.792 2191.98,327.027 2193.02,328.059 2194.07,228.161 2195.11,228.615 2196.15,393.585 2197.2,395.422 2198.24,257.382 2199.29,258.848 2200.33,223.727 2201.37,225.212 2202.42,335.935 2203.46,338.797 2204.51,352.101 2205.55,354.799 2206.59,318.696 2207.64,319.354 2208.68,349.899 2209.73,351.715 2210.77,273.41 2211.81,275.303 2212.86,220.847 2213.9,223.982 2214.95,213.859 2215.99,215.956 2217.03,307.803 2218.08,309.446 2219.12,228.824 2220.17,232.783 2221.21,207.539 2222.25,209.955 2223.3,341.86 2224.34,342.906 2225.39,448.343 2226.43,449.895 2227.47,327.563 2228.52,330.543 2229.56,296.754 2230.61,300.857 2231.65,349.225 2232.69,350.416 2233.74,426.3 2234.78,427.498 2235.83,273.739 2236.87,277.807 2237.91,314.869 2238.96,316.241 2240,444.654 2241.05,445.381 2242.09,208.673 2243.13,211.173 2244.18,379.214 2245.22,383.309 2246.27,243.612 2247.31,244.664 2248.35,323.405 2249.4,325.554 2250.44,263.057 2251.49,264.657 2252.53,212.161 2253.57,213.107 2254.62,216.786 2255.66,219.936 2256.71,355.459 2257.75,357.215 2258.79,273.99 2259.84,276.523 2260.88,229.421 2261.93,230.883 2262.97,340.762 2264.01,344.941 2265.06,317.476 2266.1,319.232 2267.15,278.369 2268.19,281.872 2269.23,309.912 2270.28,312.635 2271.32,316.992 2272.37,319.622 2273.41,333.943 2274.45,335.6 2275.5,178.451 2276.54,180.455 2277.59,417.908 2278.63,422.043 2279.67,215.218 2280.72,219.396 2281.76,389.481 2282.81,391.562 2283.85,259.199 2284.89,261.978 2285.94,305.569 2286.98,308.848 2288.03,128.79 2289.07,130.986 2290.12,132.515 "/>
<path clip-path="url(#clip130)" d="M2005.22 1438.47 L2278.98 1438.47 L2278.98 1334.79 L2005.22 1334.79  Z" fill="#ffffff" fill-rule="evenodd" fill-opacity="1"/>
<polyline clip-path="url(#clip130)" style="stroke:#000000; stroke-linecap:round; stroke-linejoin:round; stroke-width:4; stroke-opacity:1; fill:none" points="2005.22,1438.47 2278.98,1438.47 2278.98,1334.79 2005.22,1334.79 2005.22,1438.47 "/>
<polyline clip-path="url(#clip130)" style="stroke:#009af9; stroke-linecap:round; stroke-linejoin:round; stroke-width:4; stroke-opacity:1; fill:none" points="2029.81,1386.63 2177.36,1386.63 "/>
<path clip-path="url(#clip130)" d="M2215.8 1406.32 Q2213.99 1410.95 2212.28 1412.36 Q2210.57 1413.78 2207.7 1413.78 L2204.29 1413.78 L2204.29 1410.21 L2206.79 1410.21 Q2208.55 1410.21 2209.53 1409.38 Q2210.5 1408.54 2211.68 1405.44 L2212.44 1403.5 L2201.96 1377.99 L2206.47 1377.99 L2214.57 1398.27 L2222.67 1377.99 L2227.19 1377.99 L2215.8 1406.32 Z" fill="#000000" fill-rule="nonzero" fill-opacity="1" /><path clip-path="url(#clip130)" d="M2234.48 1399.98 L2242.12 1399.98 L2242.12 1373.61 L2233.81 1375.28 L2233.81 1371.02 L2242.07 1369.35 L2246.75 1369.35 L2246.75 1399.98 L2254.39 1399.98 L2254.39 1403.91 L2234.48 1403.91 L2234.48 1399.98 Z" fill="#000000" fill-rule="nonzero" fill-opacity="1" /></svg>
